<?xml version="1.0" encoding="utf-8"?>
<!-- Generator: Adobe Illustrator 16.0.3, SVG Export Plug-In . SVG Version: 6.00 Build 0)  -->
<!DOCTYPE svg PUBLIC "-//W3C//DTD SVG 1.1//EN" "http://www.w3.org/Graphics/SVG/1.1/DTD/svg11.dtd">
<svg version="1.1" id="Logotip" xmlns="http://www.w3.org/2000/svg" xmlns:xlink="http://www.w3.org/1999/xlink" x="0px" y="0px"
	 width="1275.591px" height="1011.996px" viewBox="0 0 1275.591 1011.996" enable-background="new 0 0 1275.591 1011.996"
	 xml:space="preserve">
<g>
	<g>
		<path d="M219.452,403.602c2.706,4.176,3.898,7.9,5.409,15.76c10.58-10.326,23.625-15.76,37.862-15.76
			c12.859,0,23.412,4.176,31.578,12.698c2.2,2.137,4.322,4.892,6.152,7.597c14.21-14.555,26.937-20.295,43.985-20.295
			c12.143,0,23.65,3.63,30.677,9.677c8.776,7.584,11.56,16.702,11.56,37.93v110.443h-39.452v-102.53c0-18.586-2.2-22.18-12.78-22.18
			c-7.582,0-18.241,5.172-26.991,13.059v111.651h-38.498V460.578c0-19.38-2.809-23.93-14.104-23.93
			c-7.504,0-17.897,3.887-26.647,11.813v113.189h-39.718V453.313c0-22.432-1.537-32.122-5.806-39.742L219.452,403.602z"/>
		<path d="M531.918,426.643c12.409,14.556,17.95,31.536,17.95,56.714c0,26.698-6.123,44.938-19.515,60.079
			c-11.771,13.337-27.282,21.557-51.197,21.557c-42.236,0-69.784-31.566-69.784-80.391c0-48.868,27.839-81.347,69.784-81.347
			C501.295,403.255,518.583,410.865,531.918,426.643z M458.821,449.071c-2.784,8.22-4.268,19.131-4.268,34.615
			c0,17.855,1.828,31.273,5.143,39.134c3.659,8.499,12.808,12.741,20.627,12.741c17.606,0,25.137-15.763,25.137-52.471
			c0-20.948-2.732-34.629-8.166-41.627c-3.899-5.118-10.235-8.166-17.553-8.166C470.01,433.298,462.108,439.341,458.821,449.071z"/>
		<path d="M680.634,406.307v27.916l-68.616,99.203h71.295l-9.73,28.226H559.256v-25.175l73.046-101.641h-66.949v-28.529H680.634z"/>
		<path d="M749.387,363.537c0,13.976-11.11,25.136-25.161,25.136c-13.603,0-24.79-11.16-24.79-25.136
			c0-13.946,11.561-25.201,25.477-25.201C738.542,338.336,749.387,349.591,749.387,363.537z M744.616,402.646v159.006h-40.647
			V409.035L744.616,402.646z"/>
		<path d="M818.641,377.513v121.035c0,26.738,0.319,30.332,2.759,34.574c1.537,2.756,4.824,4.243,8.22,4.243
			c1.457,0,2.331,0,4.532-0.559l6.947,24.245c-6.947,2.719-15.457,4.233-24.258,4.233c-17.342,0-31.288-8.17-36.116-21.188
			c-3.048-7.9-3.711-12.778-3.711-34.918V393.231c0-20.309-0.528-32.717-2.043-46.729l41.577-9.398
			C818.005,345.589,818.641,355.61,818.641,377.513z"/>
		<path d="M902.955,377.513v121.035c0,26.738,0.347,30.332,2.84,34.574c1.43,2.756,4.717,4.243,8.112,4.243
			c1.537,0,2.466,0,4.612-0.559l6.922,24.245c-6.922,2.719-15.434,4.233-24.263,4.233c-17.312,0-31.284-8.17-36.136-21.188
			c-3.103-7.9-3.607-12.778-3.607-34.918V393.231c0-20.309-0.608-32.717-2.174-46.729l41.52-9.398
			C902.454,345.589,902.955,355.61,902.955,377.513z"/>
		<path d="M966.748,412.084c15.114-6.39,28.108-9.095,42.426-9.095c26.142,0,44.011,9.68,50.134,26.991
			c2.016,6.365,2.945,11.218,2.76,27.919l-0.982,52.155c0,0.915,0,1.881,0,2.756c0,16.678,2.758,23.067,14.637,31.846
			l-21.582,24.922c-9.494-3.977-17.949-10.976-21.902-18.839c-2.996,3.063-6.363,6.033-9.439,8.18
			c-7.529,5.464-18.531,8.513-31.259,8.513c-34.599,0-53.396-17.634-53.396-48.521c0-36.469,25.241-53.48,74.66-53.48
			c2.97,0,5.781,0,9.148,0.347v-6.336c0-17.327-3.367-23.095-18.32-23.095c-12.887,0-28.186,6.336-44.837,17.591l-17.313-29.138
			C949.726,419.627,955.799,416.619,966.748,412.084z M1019.431,493.696c-28.105,0-37.966,5.117-37.966,23.703
			c0,12.089,7.688,20.282,18.001,20.282c7.557,0,15.194-3.95,21.213-10.605l0.664-33.38H1019.431z"/>
	</g>
	<path d="M809.378,206.397c0,0-23.18,43.976-38.43,62.976l-4.813,7.188c0,0-3.188,6.896-22.271-2.354
		c0,0-34.167-17.914-40.75-23.497c0,0-12.514,21.308-24.249,33.911c0,0-31.917,35.128-32.292,35.128s-1,3.125-17.125,3.563
		s-449,40.188-449,40.188l2.229,5.875l467.771-31.25l56.125-59.375l57,26.375c0,0,6,2.875,9.179-1.105l42.071-57.02
		c0,0,1.463-2.024,3.135-2.146c1.004-0.073,1.835,1.104,3.115,2.146c3.425,2.79,52.844,39.906,52.844,39.906
		s4.406,3.156,10.37,1.652c6.263-1.58,17.325-5.25,23.411-7.621c4.477-1.744,12.961-4.809,17.51-5.844
		c3.136-0.715,3.031,0.01,3.529,0.531l22.711,33.417c0,0,2.714,4.489,16.666,16.063c14.418,11.96,101.667,67.937,101.667,67.937
		v-2.051l-98-85.283c0,0-37.666-61.666-37.666-62.999s-4.502,10.711-45.377,24.586c0,0-9.248,4.065-19.873-4.226l-33.667-33.444
		l-24.625-25.5"/>
	<path d="M532.449,354.873l115-6.5c0,0,1.5,1.125,7.5-4.875s52.417-52.959,52.417-52.959l53.583,24.084c0,0,9.667,4.75,15.333-2.417
		c5.667-7.167,42.292-57.999,42.292-57.999l50.208,41.167c0,0,8,8.5,30.667,0.5s25.421-10.168,25.421-10.168l27.579,36.668
		c0,0,4.834,6.832,13.5,11.999c8.667,5.167,70.5,43.999,70.5,43.999h-1.832l-78.167-34.5l-31.008-40.077l-36.595,11.614
		c0,0-10.522,4.089-28.064-9.866c-16.638-13.236-40.894-32.757-40.894-32.757l-39.439,54.587c0,0-9.334,9.839-26.834,0.339
		s-44.249-20.756-44.249-20.756l-57.584,56.088l-119.333-7.588V354.873z"/>
	<g>
		<path d="M603.825,686.874c0,7.699-2.85,13.798-8.55,18.298c-5.1,4.099-11.651,6.149-19.65,6.149c-10.102,0-19.252-2.498-27.45-7.5
			l4.5-8.699c7.699,4.701,15.6,7.05,23.7,7.05c4.399,0,8.025-1.097,10.875-3.296c2.85-2.198,4.275-5.395,4.275-9.593
			c0-6.293-4.102-10.39-12.305-12.288l-9.295-2.126c-12.6-2.798-18.9-9.6-18.9-20.399c0-7.098,2.7-12.798,8.1-17.099
			c4.999-3.899,11.149-5.85,18.45-5.85c8.199,0,15.799,2.002,22.8,6l-4.35,8.7c-7.5-3.601-13.751-5.399-18.75-5.399
			c-4.001,0-7.301,1-9.9,3c-2.801,2.301-4.2,5.399-4.2,9.3c0,5.702,3.6,9.302,10.8,10.802l9.9,2.101
			C597.174,668.825,603.825,675.774,603.825,686.874z"/>
		<path d="M639.525,709.275c-2.4,1.064-4.901,1.597-7.5,1.597c-8.302,0-12.45-4.605-12.45-13.819v-73.75
			c0-9.713-0.701-16.623-2.1-20.729l12.15-2.402c1.2,3.506,1.8,11.217,1.8,23.135v71.054c0,2.605,0.15,4.308,0.45,5.106
			c0.6,1.604,1.85,2.405,3.75,2.405c0.3,0,0.799,0,1.5,0L639.525,709.275z"/>
		<path d="M713.774,673.672c0,13.8-3.9,24.101-11.7,30.899c-5.5,4.801-12.3,7.2-20.4,7.2c-10.8,0-19.05-4.05-24.75-12.149
			c-5.001-7.1-7.5-16.299-7.5-27.601c0-11.1,2.449-20.149,7.35-27.15c5.7-7.998,13.849-12,24.45-12
			c11.199,0,19.65,4.201,25.35,12.601C711.375,652.573,713.774,661.972,713.774,673.672z M700.424,674.571
			c0-9.398-0.952-16.448-2.85-21.149c-3-7.299-8.5-10.95-16.5-10.95c-7.5,0-12.701,2.95-15.6,8.85c-2.201,4.2-3.3,10.451-3.3,18.75
			c0,9.502,0.999,16.602,3,21.301c3.099,7.102,8.7,10.649,16.8,10.649C694.274,702.021,700.424,692.872,700.424,674.571z"/>
		<path d="M788.324,634.672l-27.9,75.3h-11.55l-26.85-74.851l11.998-2.549l17.346,51.471c1.413,3.993,2.625,8.238,3.635,12.729
			h0.305c0.604-3.298,1.816-7.495,3.635-12.593l17.008-49.356L788.324,634.672z"/>
		<path d="M855.073,673.672h-46.65v1.81c0,7.441,1.148,12.921,3.45,16.441c3.999,6.133,10.2,9.199,18.6,9.199
			c7.099,0,13.2-2.349,18.3-7.051l4.5,7.5c-6.802,6.202-15.202,9.301-25.2,9.301c-11.1,0-19.552-3.949-25.35-11.851
			c-5.201-7.099-7.8-16.399-7.8-27.899c0-10.5,2.55-19.351,7.65-26.55c5.798-8.101,13.699-12.15,23.7-12.15
			c8.299,0,15.049,2.74,20.25,8.219c3.698,3.887,6.15,8.771,7.35,14.649c0.799,3.787,1.2,9.365,1.2,16.738V673.672z
			 M842.623,664.972c-0.101-7.1-1.15-12.45-3.15-16.05c-2.7-4.801-7.301-7.2-13.8-7.2c-10.901,0-16.65,7.751-17.25,23.25H842.623z"
			/>
		<path d="M926.773,709.222h-11.85v-50.779c0-5.124-0.605-8.789-1.81-11c-1.608-3.112-4.671-4.671-9.192-4.671
			c-3.316,0-7.085,1.156-11.304,3.467c-3.818,2.009-6.982,4.368-9.495,7.08v55.903h-11.25v-55.65c0-7.599-0.951-13.499-2.85-17.7
			l11.4-3.149c1.8,3.899,2.7,7.8,2.7,11.7c7.699-7.801,15.549-11.7,23.55-11.7c3.9,0,7.549,0.978,10.95,2.933
			c3.398,1.954,5.85,4.633,7.35,8.039c1.2,2.706,1.8,5.612,1.8,8.716V709.222z"/>
		<path d="M963.223,611.422c0,2.602-0.876,4.776-2.625,6.525c-1.751,1.75-3.926,2.625-6.525,2.625c-2.501,0-4.65-0.875-6.45-2.625
			c-1.8-1.749-2.7-3.875-2.7-6.375c0-2.6,0.874-4.801,2.625-6.601c1.748-1.8,3.923-2.7,6.525-2.7c2.599,0,4.774,0.877,6.525,2.625
			C962.346,606.647,963.223,608.822,963.223,611.422z M960.223,709.222h-12.45v-74.399l12.45-1.951V709.222z"/>
		<path d="M994.122,707.166c0,8.787-1.05,15.179-3.15,19.175c-2.901,5.491-7.65,9.635-14.25,12.431l-5.85-7.788
			c2.799-1.299,4.898-2.648,6.3-4.045c3.398-3.396,5.1-10.187,5.1-20.372v-71.447l11.85-2.397V707.166z M997.122,610.072
			c0,2.602-0.876,4.799-2.625,6.6c-1.75,1.8-3.926,2.699-6.525,2.699c-2.5,0-4.65-0.873-6.45-2.625c-1.8-1.748-2.7-3.873-2.7-6.375
			c0-2.599,0.874-4.822,2.625-6.674c1.749-1.85,3.923-2.775,6.525-2.775c2.499,0,4.65,0.9,6.45,2.699
			C996.222,605.422,997.122,607.573,997.122,610.072z"/>
		<path d="M1071.222,703.672l-6,8.399c-5.4-1.701-8.801-5.348-10.199-10.949c-6.701,6.7-13.901,10.05-21.601,10.05
			c-7.2,0-12.899-1.746-17.101-5.233c-4.6-3.689-6.899-9.021-6.899-16.001c0-9.668,4.399-16.796,13.2-21.382
			c6.9-3.589,15.698-5.384,26.4-5.384c1.799,0,3.548,0,5.25,0v-5.25c0-6-0.803-9.9-2.4-11.7c-2.4-2.7-5.752-4.05-10.051-4.05
			c-8.5,0-16.45,2.951-23.85,8.85l-5.85-8.4c10.1-6.697,20.55-10.049,31.35-10.049c10.599,0,17.498,3.899,20.7,11.699
			c1.099,2.7,1.649,6.952,1.649,12.75v3.75l-0.6,24.601c-0.101,0.7-0.15,1.852-0.15,3.449c0,4.2,0.249,7.102,0.75,8.7
			C1066.621,700.222,1068.421,702.272,1071.222,703.672z M1054.272,671.271c-3.434-0.199-5.402-0.3-5.906-0.3
			c-17.265,0-25.895,5.951-25.895,17.85c0,9.102,4.299,13.65,12.9,13.65c8.299,0,14.348-3.9,18.15-11.7L1054.272,671.271z"/>
	</g>
</g>
</svg>
