<?xml version="1.0" encoding="utf-8"?>
<!-- Generator: Adobe Illustrator 16.0.3, SVG Export Plug-In . SVG Version: 6.00 Build 0)  -->
<!DOCTYPE svg PUBLIC "-//W3C//DTD SVG 1.1//EN" "http://www.w3.org/Graphics/SVG/1.1/DTD/svg11.dtd">
<svg version="1.1" id="Logotip" xmlns="http://www.w3.org/2000/svg" xmlns:xlink="http://www.w3.org/1999/xlink" x="0px" y="0px"
	 width="1275.59px" height="1011.997px" viewBox="0 0 1275.59 1011.997" enable-background="new 0 0 1275.59 1011.997"
	 xml:space="preserve">
<rect y="-0.003" width="1275.59" height="1012"/>
<g>
	<g>
		<path fill="#FFFFFF" d="M219.452,403.603c2.705,4.176,3.898,7.9,5.408,15.76c10.58-10.326,23.625-15.76,37.863-15.76
			c12.859,0,23.412,4.176,31.578,12.697c2.199,2.137,4.322,4.893,6.152,7.598c14.209-14.555,26.936-20.295,43.984-20.295
			c12.143,0,23.65,3.629,30.678,9.676c8.775,7.584,11.559,16.703,11.559,37.93v110.443h-39.451V459.122
			c0-18.586-2.201-22.18-12.781-22.18c-7.582,0-18.24,5.172-26.99,13.059v111.65h-38.498V460.579c0-19.381-2.809-23.93-14.105-23.93
			c-7.504,0-17.896,3.887-26.646,11.813v113.189h-39.719V453.313c0-22.432-1.537-32.121-5.805-39.742L219.452,403.603z"/>
		<path fill="#FFFFFF" d="M531.919,426.644c12.408,14.555,17.949,31.535,17.949,56.713c0,26.699-6.123,44.938-19.514,60.08
			c-11.771,13.336-27.283,21.557-51.197,21.557c-42.236,0-69.785-31.566-69.785-80.391c0-48.869,27.84-81.348,69.785-81.348
			C501.296,403.255,518.583,410.866,531.919,426.644z M458.821,449.071c-2.785,8.221-4.268,19.131-4.268,34.615
			c0,17.855,1.828,31.273,5.143,39.135c3.658,8.498,12.807,12.74,20.627,12.74c17.605,0,25.137-15.762,25.137-52.471
			c0-20.947-2.732-34.629-8.166-41.627c-3.9-5.117-10.236-8.166-17.553-8.166C470.011,433.298,462.108,439.341,458.821,449.071z"/>
		<path fill="#FFFFFF" d="M680.634,406.308v27.916l-68.615,99.203h71.295l-9.73,28.225H559.257v-25.174l73.045-101.641h-66.949
			v-28.529H680.634z"/>
		<path fill="#FFFFFF" d="M749.388,363.538c0,13.975-11.111,25.135-25.162,25.135c-13.602,0-24.789-11.16-24.789-25.135
			c0-13.947,11.561-25.201,25.477-25.201C738.542,338.337,749.388,349.591,749.388,363.538z M744.616,402.646v159.006h-40.648
			V409.036L744.616,402.646z"/>
		<path fill="#FFFFFF" d="M818.642,377.513v121.035c0,26.738,0.318,30.332,2.758,34.574c1.537,2.756,4.824,4.244,8.221,4.244
			c1.457,0,2.33,0,4.531-0.559l6.947,24.244c-6.947,2.719-15.457,4.234-24.258,4.234c-17.342,0-31.287-8.17-36.115-21.188
			c-3.049-7.9-3.711-12.779-3.711-34.918V393.231c0-20.309-0.529-32.717-2.043-46.729l41.576-9.398
			C818.005,345.589,818.642,355.61,818.642,377.513z"/>
		<path fill="#FFFFFF" d="M902.954,377.513v121.035c0,26.738,0.348,30.332,2.84,34.574c1.43,2.756,4.717,4.244,8.113,4.244
			c1.537,0,2.465,0,4.611-0.559l6.922,24.244c-6.922,2.719-15.434,4.234-24.262,4.234c-17.313,0-31.285-8.17-36.137-21.188
			c-3.102-7.9-3.607-12.779-3.607-34.918V393.231c0-20.309-0.607-32.717-2.174-46.729l41.52-9.398
			C902.454,345.589,902.954,355.61,902.954,377.513z"/>
		<path fill="#FFFFFF" d="M966.747,412.085c15.115-6.391,28.109-9.096,42.426-9.096c26.143,0,44.012,9.68,50.135,26.992
			c2.016,6.365,2.945,11.217,2.76,27.918l-0.982,52.156c0,0.914,0,1.881,0,2.756c0,16.678,2.758,23.066,14.637,31.846
			l-21.582,24.922c-9.494-3.977-17.949-10.977-21.902-18.84c-2.996,3.063-6.363,6.033-9.439,8.18
			c-7.529,5.465-18.531,8.514-31.26,8.514c-34.598,0-53.396-17.635-53.396-48.521c0-36.469,25.242-53.48,74.66-53.48
			c2.971,0,5.781,0,9.148,0.346v-6.336c0-17.326-3.367-23.094-18.32-23.094c-12.887,0-28.186,6.336-44.836,17.59L941.479,424.8
			C949.726,419.628,955.8,416.62,966.747,412.085z M1019.431,493.696c-28.105,0-37.967,5.117-37.967,23.703
			c0,12.09,7.689,20.283,18.002,20.283c7.557,0,15.193-3.951,21.213-10.605l0.664-33.381H1019.431z"/>
	</g>
	<path fill="#FFFFFF" d="M809.378,206.397c0,0-23.18,43.977-38.43,62.977l-4.813,7.188c0,0-3.188,6.895-22.271-2.355
		c0,0-34.166-17.914-40.75-23.496c0,0-12.514,21.307-24.248,33.91c0,0-31.918,35.129-32.293,35.129s-1,3.125-17.125,3.563
		s-449,40.188-449,40.188l2.23,5.875l467.77-31.25l56.125-59.375l57,26.375c0,0,6,2.875,9.18-1.105l42.07-57.02
		c0,0,1.463-2.025,3.135-2.146c1.004-0.074,1.836,1.104,3.115,2.146c3.426,2.789,52.844,39.906,52.844,39.906
		s4.406,3.156,10.371,1.652c6.262-1.58,17.324-5.25,23.41-7.621c4.477-1.744,12.961-4.809,17.51-5.844
		c3.137-0.715,3.031,0.01,3.529,0.531l22.711,33.416c0,0,2.715,4.49,16.666,16.064c14.418,11.959,101.668,67.936,101.668,67.936
		v-2.051l-98-85.283c0,0-37.666-61.666-37.666-62.998c0-1.334-4.502,10.711-45.377,24.586c0,0-9.248,4.064-19.873-4.227
		l-33.668-33.443l-24.625-25.5"/>
	<path fill="#FFFFFF" d="M532.448,354.874l115-6.5c0,0,1.5,1.125,7.5-4.875s52.418-52.959,52.418-52.959l53.582,24.084
		c0,0,9.668,4.75,15.334-2.418c5.666-7.166,42.291-57.998,42.291-57.998l50.209,41.166c0,0,8,8.5,30.666,0.5
		c22.668-8,25.422-10.168,25.422-10.168l27.578,36.668c0,0,4.834,6.832,13.5,12c8.668,5.166,70.5,43.998,70.5,43.998h-1.832
		l-78.168-34.5l-31.008-40.076l-36.594,11.613c0,0-10.523,4.09-28.064-9.865c-16.639-13.236-40.895-32.758-40.895-32.758
		l-39.439,54.588c0,0-9.334,9.838-26.834,0.338s-44.248-20.756-44.248-20.756l-57.584,56.088l-119.334-7.588V354.874z"/>
	<g>
		<path fill="#FFFFFF" d="M603.825,686.874c0,7.699-2.851,13.799-8.55,18.299c-5.1,4.098-11.65,6.148-19.65,6.148
			c-10.102,0-19.252-2.498-27.449-7.5l4.5-8.699c7.699,4.701,15.6,7.051,23.699,7.051c4.399,0,8.025-1.098,10.875-3.297
			c2.85-2.197,4.275-5.395,4.275-9.592c0-6.293-4.102-10.391-12.305-12.289l-9.295-2.125c-12.601-2.799-18.9-9.6-18.9-20.4
			c0-7.098,2.699-12.797,8.1-17.098c5-3.9,11.149-5.85,18.45-5.85c8.198,0,15.8,2.002,22.8,6l-4.35,8.699
			c-7.5-3.6-13.751-5.399-18.75-5.399c-4.001,0-7.301,1.001-9.9,3c-2.801,2.302-4.199,5.399-4.199,9.3
			c0,5.703,3.6,9.303,10.799,10.803l9.9,2.1C597.174,668.825,603.825,675.774,603.825,686.874z"/>
		<path fill="#FFFFFF" d="M639.525,709.276c-2.4,1.064-4.9,1.596-7.5,1.596c-8.302,0-12.45-4.605-12.45-13.818v-73.751
			c0-9.712-0.7-16.622-2.101-20.728l12.15-2.402c1.2,3.506,1.801,11.217,1.801,23.135v71.053c0,2.605,0.149,4.309,0.449,5.107
			c0.6,1.604,1.85,2.404,3.75,2.404c0.301,0,0.799,0,1.5,0L639.525,709.276z"/>
		<path fill="#FFFFFF" d="M713.774,673.673c0,13.799-3.899,24.1-11.7,30.898c-5.5,4.801-12.3,7.201-20.4,7.201
			c-10.799,0-19.049-4.051-24.75-12.15c-5.001-7.1-7.5-16.299-7.5-27.6c0-11.1,2.449-20.15,7.351-27.15
			c5.7-7.999,13.849-12,24.45-12c11.198,0,19.65,4.2,25.35,12.6C711.375,652.573,713.774,661.972,713.774,673.673z M700.424,674.571
			c0-9.398-0.951-16.447-2.85-21.148c-3-7.299-8.5-10.951-16.5-10.951c-7.5,0-12.701,2.951-15.6,8.85
			c-2.201,4.201-3.301,10.451-3.301,18.75c0,9.502,0.999,16.602,3,21.301c3.1,7.102,8.701,10.65,16.801,10.65
			C694.274,702.022,700.424,692.872,700.424,674.571z"/>
		<path fill="#FFFFFF" d="M788.324,634.673l-27.9,75.299h-11.55l-26.851-74.85l11.998-2.55l17.346,51.472
			c1.414,3.992,2.625,8.238,3.636,12.729h0.305c0.604-3.299,1.816-7.496,3.636-12.594l17.008-49.356L788.324,634.673z"/>
		<path fill="#FFFFFF" d="M855.073,673.673h-46.649v1.809c0,7.441,1.148,12.922,3.449,16.441c3.998,6.133,10.2,9.199,18.6,9.199
			c7.1,0,13.201-2.348,18.301-7.051l4.5,7.5c-6.802,6.203-15.201,9.301-25.2,9.301c-11.101,0-19.552-3.949-25.351-11.85
			c-5.2-7.1-7.799-16.4-7.799-27.9c0-10.5,2.549-19.35,7.649-26.55c5.798-8.101,13.699-12.149,23.7-12.149
			c8.299,0,15.049,2.739,20.25,8.219c3.698,3.887,6.15,8.77,7.35,14.648c0.799,3.787,1.2,9.365,1.2,16.738V673.673z
			 M842.623,664.972c-0.101-7.1-1.15-12.449-3.15-16.049c-2.699-4.801-7.301-7.201-13.799-7.201c-10.901,0-16.65,7.752-17.25,23.25
			H842.623z"/>
		<path fill="#FFFFFF" d="M926.773,709.222h-11.85v-50.779c0-5.123-0.605-8.789-1.811-11c-1.607-3.111-4.67-4.67-9.191-4.67
			c-3.316,0-7.086,1.155-11.305,3.467c-3.817,2.008-6.981,4.367-9.494,7.08v55.902h-11.25v-55.65c0-7.598-0.951-13.499-2.85-17.699
			l11.4-3.15c1.799,3.9,2.699,7.801,2.699,11.701c7.699-7.801,15.549-11.701,23.551-11.701c3.899,0,7.549,0.979,10.949,2.933
			c3.398,1.954,5.85,4.634,7.35,8.039c1.201,2.706,1.801,5.612,1.801,8.716V709.222z"/>
		<path fill="#FFFFFF" d="M963.223,611.423c0,2.602-0.877,4.775-2.625,6.524c-1.751,1.751-3.926,2.625-6.525,2.625
			c-2.5,0-4.649-0.874-6.449-2.625c-1.801-1.749-2.7-3.874-2.7-6.375c0-2.599,0.874-4.8,2.625-6.601
			c1.748-1.799,3.923-2.699,6.524-2.699c2.6,0,4.774,0.877,6.525,2.625C962.346,606.647,963.223,608.823,963.223,611.423z
			 M960.223,709.222h-12.45v-74.399l12.45-1.95V709.222z"/>
		<path fill="#FFFFFF" d="M994.121,707.167c0,8.787-1.049,15.178-3.149,19.174c-2.901,5.492-7.649,9.635-14.25,12.432l-5.851-7.789
			c2.799-1.299,4.898-2.648,6.301-4.045c3.398-3.396,5.1-10.186,5.1-20.371V635.12l11.85-2.398V707.167z M997.121,610.072
			c0,2.602-0.876,4.8-2.625,6.601c-1.75,1.799-3.926,2.699-6.524,2.699c-2.501,0-4.649-0.874-6.45-2.625
			c-1.8-1.748-2.699-3.874-2.699-6.375c0-2.6,0.873-4.823,2.625-6.675c1.748-1.849,3.923-2.774,6.524-2.774
			c2.499,0,4.649,0.899,6.45,2.699C996.222,605.423,997.121,607.573,997.121,610.072z"/>
		<path fill="#FFFFFF" d="M1071.222,703.673l-6,8.398c-5.399-1.701-8.801-5.348-10.2-10.949c-6.701,6.701-13.9,10.051-21.6,10.051
			c-7.2,0-12.9-1.746-17.1-5.234c-4.602-3.689-6.9-9.021-6.9-16c0-9.668,4.398-16.797,13.199-21.383
			c6.9-3.588,15.699-5.383,26.4-5.383c1.801,0,3.549,0,5.25,0v-5.25c0-6-0.801-9.9-2.4-11.701
			c-2.399-2.699-5.751-4.049-10.049-4.049c-8.502,0-16.451,2.95-23.851,8.85l-5.851-8.4c10.1-6.698,20.551-10.05,31.351-10.05
			c10.599,0,17.499,3.899,20.7,11.7c1.1,2.699,1.65,6.951,1.65,12.75v3.75l-0.601,24.6c-0.101,0.701-0.149,1.852-0.149,3.449
			c0,4.201,0.248,7.102,0.75,8.701C1066.621,700.222,1068.421,702.272,1071.222,703.673z M1054.271,671.272
			c-3.434-0.199-5.402-0.301-5.906-0.301c-17.264,0-25.894,5.951-25.894,17.85c0,9.102,4.298,13.65,12.899,13.65
			c8.3,0,14.35-3.9,18.15-11.699L1054.271,671.272z"/>
	</g>
</g>
</svg>
