<?xml version="1.0" encoding="utf-8"?>
<!-- Generator: Adobe Illustrator 16.0.3, SVG Export Plug-In . SVG Version: 6.00 Build 0)  -->
<!DOCTYPE svg PUBLIC "-//W3C//DTD SVG 1.1//EN" "http://www.w3.org/Graphics/SVG/1.1/DTD/svg11.dtd">
<svg version="1.1" id="Logotip" xmlns="http://www.w3.org/2000/svg" xmlns:xlink="http://www.w3.org/1999/xlink" x="0px" y="0px"
	 width="2717.45px" height="1011.997px" viewBox="0 0 2717.45 1011.997" enable-background="new 0 0 2717.45 1011.997"
	 xml:space="preserve">
<rect y="-12.554" width="2717.45" height="1033.204"/>
<g>
	<path fill="#4990CD" d="M996.925,305.329c0,0-23.18,43.977-38.43,62.977l-4.813,7.188c0,0-3.188,6.896-22.271-2.354
		c0,0-34.166-17.914-40.75-23.498c0,0-12.514,21.307-24.249,33.912c0,0-31.917,35.127-32.292,35.127s-1,3.125-17.125,3.563
		s-449,40.188-449,40.188l2.23,5.875l467.77-31.25l56.125-59.375l57,26.375c0,0,6,2.875,9.18-1.105l42.07-57.02
		c0,0,1.463-2.025,3.135-2.146c1.004-0.074,1.835,1.104,3.115,2.146c3.426,2.789,52.844,39.906,52.844,39.906
		s4.406,3.156,10.37,1.652c6.263-1.58,17.325-5.25,23.411-7.621c4.477-1.744,12.961-4.809,17.51-5.844
		c3.137-0.715,3.031,0.01,3.529,0.531l22.711,33.416c0,0,2.714,4.49,16.666,16.064c14.418,11.959,101.668,67.936,101.668,67.936
		v-2.051l-98-85.281c0,0-37.667-61.668-37.667-63c0-1.334-4.502,10.711-45.377,24.586c0,0-9.248,4.066-19.873-4.227l-33.667-33.443
		l-24.625-25.5"/>
	<path fill="#78C147" d="M719.995,453.806l115-6.5c0,0,1.5,1.125,7.5-4.875s52.417-52.959,52.417-52.959l53.583,24.084
		c0,0,9.667,4.75,15.334-2.416c5.666-7.168,42.291-58,42.291-58l50.209,41.168c0,0,7.999,8.5,30.666,0.5
		s25.421-10.168,25.421-10.168l27.579,36.668c0,0,4.834,6.832,13.5,11.998c8.667,5.168,70.5,44,70.5,44h-1.833l-78.167-34.5
		l-31.008-40.078l-36.594,11.615c0,0-10.523,4.088-28.064-9.867c-16.639-13.236-40.895-32.758-40.895-32.758l-39.439,54.588
		c0,0-9.334,9.838-26.834,0.338s-44.249-20.754-44.249-20.754l-57.583,56.088l-119.334-7.588V453.806z"/>
	<g>
		<path fill="#FFFFFF" d="M406.999,502.534c2.706,4.176,3.898,7.9,5.409,15.76c10.58-10.326,23.625-15.76,37.862-15.76
			c12.859,0,23.413,4.176,31.579,12.697c2.2,2.137,4.322,4.893,6.152,7.598c14.21-14.555,26.937-20.295,43.985-20.295
			c12.143,0,23.65,3.631,30.677,9.676c8.776,7.584,11.559,16.703,11.559,37.93v110.443H534.77V558.054
			c0-18.586-2.2-22.18-12.78-22.18c-7.583,0-18.241,5.172-26.991,13.059v111.65H456.5V559.511c0-19.381-2.809-23.93-14.104-23.93
			c-7.504,0-17.898,3.887-26.647,11.813v113.189h-39.718V552.245c0-22.432-1.538-32.121-5.806-39.742L406.999,502.534z"/>
		<path fill="#FFFFFF" d="M719.465,525.575c12.409,14.555,17.95,31.535,17.95,56.713c0,26.699-6.124,44.938-19.515,60.08
			c-11.771,13.336-27.282,21.557-51.198,21.557c-42.236,0-69.784-31.566-69.784-80.391c0-48.869,27.839-81.348,69.784-81.348
			C688.842,502.187,706.13,509.798,719.465,525.575z M646.368,548.003c-2.784,8.221-4.268,19.131-4.268,34.615
			c0,17.855,1.829,31.273,5.143,39.135c3.659,8.498,12.808,12.74,20.627,12.74c17.607,0,25.137-15.762,25.137-52.471
			c0-20.947-2.732-34.629-8.166-41.627c-3.9-5.117-10.235-8.166-17.553-8.166C657.557,532.229,649.655,538.272,646.368,548.003z"/>
		<path fill="#FFFFFF" d="M868.181,505.239v27.916l-68.615,99.203h71.295l-9.73,28.225H746.803v-25.174l73.046-101.641h-66.949
			v-28.529H868.181z"/>
		<path fill="#FFFFFF" d="M936.935,462.47c0,13.975-11.111,25.135-25.162,25.135c-13.602,0-24.789-11.16-24.789-25.135
			c0-13.945,11.561-25.201,25.477-25.201C926.089,437.269,936.935,448.524,936.935,462.47z M932.163,501.579v159.004h-40.648
			V507.968L932.163,501.579z"/>
		<path fill="#FFFFFF" d="M1006.188,476.444v121.035c0,26.738,0.318,30.332,2.758,34.574c1.537,2.756,4.824,4.244,8.221,4.244
			c1.457,0,2.33,0,4.531-0.559l6.947,24.244c-6.947,2.719-15.457,4.234-24.258,4.234c-17.342,0-31.287-8.17-36.115-21.188
			c-3.049-7.9-3.711-12.779-3.711-34.918V492.165c0-20.311-0.529-32.719-2.043-46.73l41.576-9.398
			C1005.552,444.521,1006.188,454.542,1006.188,476.444z"/>
		<path fill="#FFFFFF" d="M1090.501,476.444v121.035c0,26.738,0.348,30.332,2.84,34.574c1.43,2.756,4.717,4.244,8.113,4.244
			c1.537,0,2.465,0,4.611-0.559l6.922,24.244c-6.922,2.719-15.434,4.234-24.262,4.234c-17.313,0-31.285-8.17-36.137-21.188
			c-3.102-7.9-3.607-12.779-3.607-34.918V492.165c0-20.311-0.607-32.719-2.174-46.73l41.52-9.398
			C1090.001,444.521,1090.501,454.542,1090.501,476.444z"/>
		<path fill="#FFFFFF" d="M1154.294,511.017c15.115-6.391,28.109-9.096,42.426-9.096c26.143,0,44.012,9.682,50.135,26.992
			c2.016,6.365,2.945,11.217,2.76,27.918l-0.982,52.156c0,0.914,0,1.881,0,2.756c0,16.678,2.758,23.066,14.637,31.846
			l-21.582,24.922c-9.494-3.977-17.949-10.977-21.902-18.84c-2.996,3.063-6.363,6.033-9.439,8.18
			c-7.529,5.465-18.531,8.514-31.26,8.514c-34.598,0-53.396-17.635-53.396-48.521c0-36.469,25.242-53.48,74.66-53.48
			c2.971,0,5.781,0,9.148,0.346v-6.336c0-17.326-3.367-23.094-18.32-23.094c-12.887,0-28.186,6.336-44.836,17.59l-17.314-29.137
			C1137.272,518.56,1143.347,515.552,1154.294,511.017z M1206.978,592.628c-28.105,0-37.967,5.117-37.967,23.703
			c0,12.09,7.689,20.283,18.002,20.283c7.557,0,15.193-3.951,21.213-10.605l0.664-33.381H1206.978z"/>
	</g>
	<g>
		<path fill="#287EC2" d="M1522.4,605.327c0,18.021-8.393,32.596-25.175,43.727c-11.13,7.42-24.735,11.129-40.81,11.129
			c-21.2,0-40.637-5.475-58.301-16.43l9.541-16.961c14.483,10.428,30.74,15.637,48.76,15.637c11.66,0,21.287-2.65,28.885-7.951
			c8.654-6.008,12.984-14.666,12.984-25.979c0-16.078-10.864-27.385-32.59-33.924l-18.302-5.512
			c-15.896-4.77-26.67-10.16-32.321-16.172c-7.595-7.951-11.392-17.852-11.392-29.693c0-16.434,5.83-29.422,17.49-38.971
			c10.774-8.836,24.554-13.254,41.34-13.254c19.433,0,37.717,5.83,54.854,17.49l-9.539,15.635
			c-15.727-10.244-30.476-15.371-44.256-15.371c-10.426,0-18.906,2.299-25.439,6.891c-7.246,5.301-10.865,12.984-10.865,23.055
			c0,13.428,10.07,23.32,30.21,29.68l20.935,6.625C1507.734,564.345,1522.4,581.126,1522.4,605.327z"/>
		<path fill="#4990CD" d="M1586.792,656.833c-4.24,1.879-8.658,2.82-13.25,2.82c-14.666,0-21.995-8.137-21.995-24.414V504.946
			c0-17.158-1.238-29.365-3.71-36.619l21.465-4.244c2.12,6.195,3.181,19.816,3.181,40.873v125.525c0,4.605,0.265,7.611,0.795,9.023
			c1.06,2.832,3.267,4.248,6.625,4.248c0.529,0,1.412,0,2.649,0L1586.792,656.833z"/>
		<path fill="#4990CD" d="M1717.965,593.933c0,24.381-6.891,42.578-20.67,54.59c-9.719,8.48-21.73,12.721-36.04,12.721
			c-19.08,0-33.655-7.156-43.726-21.465c-8.836-12.543-13.25-28.795-13.25-48.76c0-19.611,4.328-35.598,12.985-47.965
			c10.07-14.133,24.468-21.201,43.195-21.201c19.784,0,34.715,7.42,44.785,22.26
			C1713.725,556.659,1717.965,573.263,1717.965,593.933z M1694.38,595.522c0-16.604-1.681-29.059-5.035-37.365
			c-5.3-12.893-15.019-19.344-29.149-19.344c-13.25,0-22.438,5.213-27.561,15.635c-3.888,7.42-5.83,18.463-5.83,33.125
			c0,16.785,1.764,29.328,5.301,37.629c5.473,12.547,15.369,18.816,29.68,18.816C1683.515,644.019,1694.38,627.853,1694.38,595.522z
			"/>
		<path fill="#4990CD" d="M1849.668,525.032l-49.289,133.031h-20.404l-47.436-132.236l21.195-4.504l30.645,90.932
			c2.498,7.057,4.639,14.555,6.422,22.488h0.539c1.068-5.826,3.209-13.242,6.422-22.248l30.049-87.197L1849.668,525.032z"/>
		<path fill="#4990CD" d="M1967.592,593.933h-82.414v3.197c0,13.146,2.029,22.826,6.094,29.047
			c7.064,10.836,18.021,16.252,32.861,16.252c12.541,0,23.32-4.15,32.33-12.455l7.949,13.25
			c-12.016,10.955-26.855,16.43-44.52,16.43c-19.609,0-34.541-6.977-44.785-20.936c-9.188-12.541-13.779-28.973-13.779-49.289
			c0-18.551,4.504-34.186,13.514-46.906c10.244-14.309,24.203-21.465,41.871-21.465c14.662,0,26.586,4.84,35.773,14.521
			c6.535,6.865,10.865,15.494,12.986,25.879c1.412,6.691,2.119,16.547,2.119,29.572V593.933z M1945.598,578.563
			c-0.178-12.543-2.033-21.996-5.564-28.355c-4.771-8.48-12.898-12.721-24.381-12.721c-19.258,0-29.416,13.693-30.475,41.076
			H1945.598z"/>
		<path fill="#287EC2" d="M2094.262,656.737h-20.934v-89.711c0-9.051-1.068-15.527-3.197-19.432
			c-2.84-5.498-8.252-8.252-16.24-8.252c-5.859,0-12.516,2.041-19.969,6.125c-6.746,3.547-12.336,7.717-16.775,12.508v98.762
			h-19.875v-98.314c0-13.424-1.68-23.85-5.035-31.27l20.141-5.564c3.18,6.889,4.77,13.779,4.77,20.67
			c13.604-13.781,27.469-20.67,41.605-20.67c6.891,0,13.338,1.727,19.346,5.18c6.004,3.453,10.334,8.186,12.984,14.201
			c2.121,4.783,3.18,9.918,3.18,15.4V656.737z"/>
		<path fill="#287EC2" d="M2158.656,483.958c0,4.596-1.549,8.439-4.637,11.527c-3.094,3.094-6.936,4.637-11.527,4.637
			c-4.418,0-8.217-1.543-11.396-4.637c-3.18-3.088-4.77-6.844-4.77-11.262c0-4.592,1.545-8.48,4.637-11.66
			c3.09-3.18,6.932-4.77,11.529-4.77c4.592,0,8.434,1.547,11.527,4.637C2157.107,475.524,2158.656,479.366,2158.656,483.958z
			 M2153.355,656.737h-21.994V525.298l21.994-3.445V656.737z"/>
		<path fill="#287EC2" d="M2213.244,653.106c0,15.523-1.854,26.814-5.564,33.875c-5.127,9.701-13.516,17.021-25.176,21.961
			l-10.334-13.76c4.943-2.293,8.654-4.678,11.129-7.146c6.004-6,9.012-17.994,9.012-35.99V525.823l20.934-4.234V653.106z
			 M2218.545,481.573c0,4.596-1.549,8.48-4.637,11.66c-3.094,3.18-6.936,4.77-11.529,4.77c-4.418,0-8.215-1.545-11.395-4.637
			c-3.18-3.09-4.77-6.846-4.77-11.264c0-4.592,1.545-8.521,4.637-11.793c3.09-3.266,6.932-4.902,11.527-4.902
			c4.414,0,8.217,1.59,11.396,4.771C2216.955,473.358,2218.545,477.159,2218.545,481.573z"/>
		<path fill="#287EC2" d="M2349.455,646.933l-10.6,14.84c-9.541-3.006-15.549-9.449-18.021-19.344
			c-11.838,11.838-24.557,17.754-38.16,17.754c-12.719,0-22.789-3.084-30.209-9.246c-8.129-6.518-12.189-15.938-12.189-28.268
			c0-17.08,7.771-29.672,23.32-37.775c12.189-6.338,27.732-9.51,46.639-9.51c3.18,0,6.27,0,9.275,0v-9.275
			c0-10.6-1.416-17.49-4.24-20.67c-4.24-4.77-10.16-7.156-17.754-7.156c-15.02,0-29.064,5.213-42.137,15.637l-10.334-14.842
			c17.842-11.834,36.305-17.754,55.385-17.754c18.725,0,30.914,6.891,36.57,20.67c1.941,4.77,2.914,12.281,2.914,22.525v6.625
			l-1.059,43.459c-0.18,1.238-0.266,3.271-0.266,6.096c0,7.42,0.439,12.545,1.324,15.369
			C2341.326,640.837,2344.506,644.46,2349.455,646.933z M2319.51,589.692c-6.066-0.352-9.545-0.529-10.434-0.529
			c-30.5,0-45.746,10.514-45.746,31.535c0,16.078,7.594,24.115,22.789,24.115c14.662,0,25.35-6.891,32.066-20.67L2319.51,589.692z"
			/>
	</g>
</g>
</svg>
