<?xml version="1.0" encoding="utf-8"?>
<!-- Generator: Adobe Illustrator 16.0.3, SVG Export Plug-In . SVG Version: 6.00 Build 0)  -->
<!DOCTYPE svg PUBLIC "-//W3C//DTD SVG 1.1//EN" "http://www.w3.org/Graphics/SVG/1.1/DTD/svg11.dtd">
<svg version="1.1" id="Layer_1" xmlns="http://www.w3.org/2000/svg" xmlns:xlink="http://www.w3.org/1999/xlink" x="0px" y="0px"
	 width="223.289px" height="329.92px" viewBox="0 0 223.289 329.92" enable-background="new 0 0 223.289 329.92"
	 xml:space="preserve">
<rect fill="#FFFFFF" width="223.289" height="329.92"/>
<polygon fill="#ED2A24" points="0,168 0,239.023 111.645,254.512 223.289,239.023 223.289,168 "/>
<rect x="145.63" y="180.597" fill="#FFFFFF" width="0.581" height="31.07"/>
<path fill="#FFFFFF" d="M67.887,202.723h-4.148v-10.76c0-0.827-0.043-1.358-0.128-1.593c-0.171-0.486-0.574-0.73-1.213-0.73
	c-0.872,0-1.819,0.456-2.84,1.368v11.715h-4.052v-10.575c0-0.847-0.054-1.418-0.161-1.715c-0.194-0.528-0.633-0.793-1.319-0.793
	c-0.943,0-1.885,0.412-2.828,1.237v11.846h-4.149V191.33c0-2.063-0.202-3.457-0.606-4.18l3.861-1.053
	c0.234,0.383,0.425,0.936,0.575,1.658c1.148-1.105,2.478-1.658,3.988-1.658c1.341,0,2.447,0.445,3.319,1.34
	c0.17,0.19,0.383,0.458,0.638,0.797c1.404-1.425,2.947-2.137,4.627-2.137c1.638,0,2.808,0.436,3.511,1.308
	c0.616,0.787,0.925,2.021,0.925,3.701V202.723z"/>
<path fill="#FFFFFF" d="M85.565,194.489c0,2.489-0.606,4.511-1.819,6.063c-1.319,1.68-3.191,2.52-5.616,2.52
	c-2.362,0-4.202-0.84-5.521-2.52c-1.213-1.532-1.819-3.511-1.819-5.937c0-2.425,0.606-4.414,1.819-5.967
	c1.319-1.723,3.159-2.585,5.521-2.585c2.382,0,4.244,0.83,5.584,2.489C84.948,190.086,85.565,192.063,85.565,194.489
	 M80.906,194.473c0-1.493-0.118-2.614-0.351-3.361c-0.405-1.258-1.192-1.887-2.362-1.887c-1.127,0-1.893,0.651-2.297,1.952
	c-0.234,0.747-0.351,1.867-0.351,3.36c0,1.621,0.106,2.784,0.319,3.488c0.383,1.323,1.181,1.984,2.393,1.984
	C80.023,200.01,80.906,198.164,80.906,194.473"/>
<polygon fill="#FFFFFF" points="99.765,199.755 98.744,202.723 86.714,202.723 86.714,200.073 94.414,189.479 87.351,189.479 
	87.351,186.479 99.478,186.479 99.478,189.416 92.266,199.755 "/>
<path fill="#FFFFFF" d="M106.721,181.885c0,0.744-0.256,1.371-0.766,1.883c-0.511,0.511-1.138,0.766-1.883,0.766
	c-0.723,0-1.34-0.26-1.851-0.782c-0.51-0.521-0.766-1.143-0.766-1.866c0-0.744,0.261-1.372,0.782-1.883s1.154-0.766,1.899-0.766
	c0.744,0,1.361,0.255,1.851,0.766C106.476,180.513,106.721,181.141,106.721,181.885 M106.21,202.723h-4.276v-16.082l4.276-0.671
	V202.723z"/>
<path fill="#FFFFFF" d="M116.772,202.686c-0.766,0.301-1.616,0.451-2.553,0.451c-1.978,0-3.245-0.745-3.797-2.236
	c-0.256-0.682-0.383-1.906-0.383-3.675V185.02c0-1.917-0.075-3.557-0.224-4.92l4.372-0.991c0.149,0.83,0.225,2.245,0.225,4.244
	v12.732v2.394c0.105,1.128,0.489,1.691,1.148,1.691c0.17,0,0.329-0.021,0.479-0.064L116.772,202.686z"/>
<path fill="#FFFFFF" d="M125.356,202.686c-0.766,0.301-1.616,0.451-2.553,0.451c-1.978,0-3.244-0.745-3.797-2.236
	c-0.255-0.682-0.383-1.906-0.383-3.675V185.02c0-1.917-0.075-3.557-0.224-4.92l4.371-0.991c0.149,0.83,0.225,2.245,0.225,4.244
	v12.732v2.394c0.105,1.128,0.488,1.691,1.148,1.691c0.17,0,0.329-0.021,0.479-0.064L125.356,202.686z"/>
<path fill="#FFFFFF" d="M140.706,200.936l-2.266,2.617c-1.106-0.47-1.872-1.128-2.298-1.979c-0.426,0.404-0.756,0.691-0.989,0.862
	c-0.83,0.595-1.925,0.893-3.287,0.893c-1.744,0-3.095-0.414-4.052-1.24c-1.043-0.869-1.564-2.152-1.564-3.851
	c0-3.731,2.607-5.599,7.822-5.599h0.954v-0.663c0-0.863-0.107-1.452-0.319-1.77c-0.254-0.42-0.784-0.631-1.589-0.631
	c-1.313,0-2.883,0.606-4.705,1.819l-1.812-3.064c0.766-0.488,1.647-0.936,2.648-1.34c1.574-0.638,3.063-0.957,4.467-0.957
	c2.852,0,4.606,0.947,5.267,2.839c0.212,0.618,0.308,1.597,0.287,2.937l-0.097,5.775c0,0.852,0.085,1.49,0.256,1.915
	C139.643,199.989,140.068,200.468,140.706,200.936 M134.931,195.574h-0.188c-1.279,0-2.169,0.107-2.672,0.319
	c-0.838,0.362-1.256,1.085-1.256,2.17c0,0.596,0.164,1.101,0.494,1.515c0.33,0.416,0.792,0.623,1.388,0.623
	c0.808,0,1.553-0.372,2.234-1.117V195.574z"/>
<path fill="#FFFFFF" d="M153.085,187.416v12.932c0,0.671,0.276,0.987,0.81,0.987c0.276,0,0.514-0.06,0.73-0.139l0.316,0.81
	c-0.355,0.198-0.79,0.296-1.244,0.296c-1.007,0-1.737-0.513-1.737-1.915v-12.833L153.085,187.416z"/>
<polygon fill="#FFFFFF" points="158.653,202.085 158.653,190.2 155.612,192.174 155.061,191.345 158.812,188.956 159.759,188.956 
	159.759,202.085 "/>
<path fill="#FFFFFF" d="M162.444,195.51c0-4.441,1.461-6.771,4.205-6.771s4.206,2.349,4.206,6.791c0,4.441-1.462,6.771-4.206,6.771
	S162.444,199.952,162.444,195.51 M169.67,195.53c0-4.047-0.947-5.805-3.021-5.805s-3.021,1.737-3.021,5.784
	c0,4.048,0.947,5.806,3.021,5.806S169.67,199.577,169.67,195.53"/>
<path fill="#FFFFFF" d="M174.686,193.517c0.829-1.265,1.994-1.975,3.435-1.975c1.976,0,2.744,1.125,2.744,3.14v7.402h-1.125v-7.206
	c0-1.678-0.572-2.388-1.915-2.388c-1.303,0-2.368,1.105-3.06,2.211v7.383h-1.126V191.76h0.968L174.686,193.517z"/>
<polygon fill="#FFFFFF" points="31.85,227.464 31.85,221.753 26.376,221.753 26.376,227.464 25.373,227.464 25.373,215.82 
	26.376,215.82 26.376,220.902 31.85,220.902 31.85,215.82 32.853,215.82 32.853,227.464 "/>
<path fill="#FFFFFF" d="M40.537,226.139c-0.629,1.054-1.666,1.513-2.805,1.513c-1.717,0-2.736-1.07-2.736-2.669
	c0-1.853,1.495-2.821,3.892-2.821h1.53v-0.885c0-1.393-0.612-2.057-2.125-2.057c-0.663,0-1.428,0.12-2.396,0.493l-0.272-0.766
	c1.087-0.424,1.971-0.561,2.804-0.561c2.091,0,2.958,1.055,2.958,2.839v4.301c0,0.97,0.289,1.274,0.85,1.444l-0.221,0.681
	c-0.799-0.137-1.309-0.493-1.479-1.497V226.139z M40.418,222.926h-1.479c-1.904,0-2.907,0.646-2.907,2.006
	c0,1.223,0.697,1.887,1.938,1.887c1.105,0,1.955-0.646,2.448-1.614V222.926z"/>
<path fill="#FFFFFF" d="M49.632,219.968c-0.663-0.526-1.326-0.747-2.142-0.747c-1.631,0-2.754,1.274-2.754,3.842
	c0,2.549,1.123,3.756,2.754,3.756c0.816,0,1.479-0.221,2.176-0.782l0.476,0.68c-0.748,0.612-1.717,0.936-2.719,0.936
	c-2.312,0-3.723-1.751-3.723-4.589c0-2.806,1.479-4.675,3.79-4.675c1.003,0,1.87,0.271,2.652,0.918L49.632,219.968z"/>
<path fill="#FFFFFF" d="M53.083,214.834v12.63h-0.97v-12.511L53.083,214.834z M58.029,218.574l-3.723,3.995l4.148,4.895h-1.207
	l-4.062-4.86l3.654-4.029H58.029z"/>
<path fill="#FFFFFF" d="M64.269,226.139c-0.629,1.054-1.666,1.513-2.805,1.513c-1.717,0-2.736-1.07-2.736-2.669
	c0-1.853,1.495-2.821,3.892-2.821h1.53v-0.885c0-1.393-0.612-2.057-2.125-2.057c-0.663,0-1.428,0.12-2.396,0.493l-0.272-0.766
	c1.087-0.424,1.971-0.561,2.804-0.561c2.091,0,2.958,1.055,2.958,2.839v4.301c0,0.97,0.289,1.274,0.85,1.444l-0.221,0.681
	c-0.799-0.137-1.309-0.493-1.479-1.497V226.139z M64.149,222.926H62.67c-1.904,0-2.907,0.646-2.907,2.006
	c0,1.223,0.697,1.887,1.938,1.887c1.105,0,1.955-0.646,2.448-1.614V222.926z"/>
<path fill="#FFFFFF" d="M66.751,218.574H68.4v-2.125l0.969-0.119v2.244h2.329l-0.102,0.748h-2.227v5.881
	c0,1.105,0.408,1.615,1.343,1.615c0.459,0,0.901-0.153,1.343-0.408l0.39,0.68c-0.527,0.357-1.173,0.562-1.869,0.562
	c-1.445,0-2.176-0.884-2.176-2.38v-5.949h-1.649V218.574z"/>
<path fill="#FFFFFF" d="M74.945,227.464h-0.969v-12.511l0.969-0.119v5.151c0.697-1.021,1.666-1.598,2.89-1.598
	c1.699,0,2.362,0.969,2.362,2.701v6.375h-0.969v-6.103c0-1.529-0.458-2.158-1.648-2.158c-1.122,0-2.04,0.952-2.635,1.938V227.464z"
	/>
<path fill="#FFFFFF" d="M86.386,218.387c2.329,0,3.723,1.751,3.723,4.607c0,2.839-1.428,4.657-3.774,4.657s-3.74-1.769-3.74-4.624
	S84.04,218.387,86.386,218.387 M83.631,223.027c0,2.499,1.003,3.809,2.703,3.809c1.717,0,2.736-1.292,2.736-3.842
	c0-2.499-1.002-3.791-2.685-3.791C84.668,219.203,83.631,220.478,83.631,223.027"/>
<path fill="#FFFFFF" d="M93.491,220.087c0.714-1.088,1.717-1.7,2.958-1.7c1.7,0,2.363,0.969,2.363,2.703v6.374h-0.969v-6.204
	c0-1.445-0.493-2.057-1.649-2.057c-1.122,0-2.04,0.952-2.635,1.903v6.357H92.59v-8.89h0.833L93.491,220.087z"/>
<polygon fill="#FFFFFF" points="107.244,215.82 107.244,226.546 112.105,226.546 111.97,227.464 106.241,227.464 106.241,215.82 "/>
<path fill="#FFFFFF" d="M114.707,218.574v8.55c0,2.466-0.85,2.992-2.465,3.809l-0.374-0.748c1.292-0.646,1.87-1.105,1.87-3.026
	v-8.584H114.707z M113.483,215.854c0-0.408,0.289-0.714,0.73-0.714c0.442,0,0.731,0.306,0.731,0.714s-0.289,0.714-0.731,0.714
	C113.772,216.568,113.483,216.263,113.483,215.854"/>
<path fill="#FFFFFF" d="M123.003,225.951c-0.714,1.089-1.666,1.7-2.856,1.7c-1.615,0-2.363-0.952-2.363-2.686v-6.392h0.97v6.272
	c0,1.428,0.526,1.989,1.563,1.989c1.105,0,2.023-0.952,2.618-1.904v-6.357h0.969v8.891h-0.833L123.003,225.951z"/>
<path fill="#FFFFFF" d="M128.001,227.464h-0.851v-12.51l0.97-0.119v5.116c0.662-0.986,1.547-1.564,2.72-1.564
	c2.192,0,3.195,1.751,3.195,4.59c0,2.806-1.275,4.675-3.435,4.675c-1.07,0-1.869-0.425-2.532-1.395L128.001,227.464z
	 M128.12,221.021v4.25c0.544,0.884,1.343,1.529,2.328,1.529c1.632,0,2.55-1.258,2.55-3.824c0-2.516-0.766-3.757-2.346-3.757
	C129.53,219.22,128.697,220.036,128.12,221.021"/>
<path fill="#FFFFFF" d="M137.317,214.834v11.135c0,0.578,0.237,0.85,0.696,0.85c0.238,0,0.442-0.051,0.629-0.119l0.272,0.697
	c-0.306,0.17-0.681,0.255-1.071,0.255c-0.867,0-1.496-0.442-1.496-1.649v-11.049L137.317,214.834z"/>
<path fill="#FFFFFF" d="M141.515,218.574v8.55c0,2.466-0.85,2.992-2.465,3.809l-0.374-0.748c1.292-0.646,1.87-1.105,1.87-3.026
	v-8.584H141.515z M140.291,215.854c0-0.408,0.289-0.714,0.731-0.714c0.441,0,0.73,0.306,0.73,0.714s-0.289,0.714-0.73,0.714
	C140.58,216.568,140.291,216.263,140.291,215.854"/>
<path fill="#FFFFFF" d="M149.113,226.139c-0.629,1.054-1.666,1.513-2.805,1.513c-1.717,0-2.736-1.07-2.736-2.669
	c0-1.853,1.496-2.821,3.893-2.821h1.529v-0.885c0-1.393-0.611-2.057-2.124-2.057c-0.663,0-1.429,0.12-2.396,0.493l-0.272-0.766
	c1.088-0.424,1.972-0.561,2.805-0.561c2.092,0,2.958,1.055,2.958,2.839v4.301c0,0.97,0.288,1.274,0.85,1.444l-0.221,0.681
	c-0.8-0.137-1.31-0.493-1.479-1.497V226.139z M148.994,222.926h-1.479c-1.903,0-2.906,0.646-2.906,2.006
	c0,1.223,0.697,1.887,1.938,1.887c1.104,0,1.955-0.646,2.447-1.614V222.926z"/>
<path fill="#FFFFFF" d="M153.942,220.087c0.714-1.088,1.717-1.7,2.958-1.7c1.7,0,2.362,0.969,2.362,2.703v6.374h-0.968v-6.204
	c0-1.445-0.494-2.057-1.649-2.057c-1.122,0-2.04,0.952-2.635,1.903v6.357h-0.968v-8.89h0.833L153.942,220.087z"/>
<path fill="#FFFFFF" d="M166.862,226.139c-0.629,1.054-1.666,1.513-2.805,1.513c-1.717,0-2.737-1.07-2.737-2.669
	c0-1.853,1.496-2.821,3.893-2.821h1.53v-0.885c0-1.393-0.612-2.057-2.125-2.057c-0.663,0-1.428,0.12-2.396,0.493l-0.273-0.766
	c1.088-0.424,1.972-0.561,2.805-0.561c2.092,0,2.958,1.055,2.958,2.839v4.301c0,0.97,0.289,1.274,0.85,1.444l-0.221,0.681
	c-0.799-0.137-1.309-0.493-1.479-1.497V226.139z M166.743,222.926h-1.479c-1.904,0-2.907,0.646-2.907,2.006
	c0,1.223,0.698,1.887,1.938,1.887c1.105,0,1.955-0.646,2.448-1.614V222.926z"/>
<path fill="#FFFFFF" d="M180.189,227.464h-6.476v-0.85c4.028-4.147,5.405-5.694,5.405-7.666c0-1.343-0.918-2.125-2.142-2.125
	c-1.122,0-1.87,0.544-2.652,1.53l-0.714-0.51c0.986-1.241,2.023-1.87,3.417-1.87c1.683,0,3.128,1.054,3.128,2.975
	c0,2.125-1.717,3.995-5.304,7.632h5.474L180.189,227.464z"/>
<path fill="#FFFFFF" d="M181.619,221.804c0-3.824,1.258-5.83,3.621-5.83c2.362,0,3.621,2.022,3.621,5.847
	c0,3.825-1.259,5.831-3.621,5.831C182.877,227.651,181.619,225.629,181.619,221.804 M187.841,221.82
	c0-3.483-0.814-4.998-2.601-4.998c-1.785,0-2.601,1.497-2.601,4.981c0,3.485,0.815,4.997,2.601,4.997
	C187.026,226.801,187.841,225.306,187.841,221.82"/>
<polygon fill="#FFFFFF" points="192.737,227.464 192.737,217.231 190.119,218.932 189.644,218.218 192.873,216.16 193.689,216.16 
	193.689,227.464 "/>
<path fill="#FFFFFF" d="M197.038,221.771c0.697-1.089,1.598-1.666,2.754-1.666c1.666,0,3.077,1.121,3.077,3.553
	c0,2.447-1.479,3.994-3.35,3.994c-2.617,0-3.519-2.397-3.519-5.082c0-4.302,1.684-6.596,4.08-6.596c0.918,0,1.563,0.237,2.227,0.765
	l-0.459,0.68c-0.612-0.476-1.088-0.611-1.733-0.611C198.177,216.807,197.123,218.813,197.038,221.771 M197.004,222.79
	c0.034,2.566,0.833,4.028,2.516,4.028c1.479,0,2.329-1.258,2.329-3.127c0-1.973-0.9-2.771-2.192-2.771
	C198.585,220.92,197.701,221.702,197.004,222.79"/>
<g>
	<g>
		<path d="M168.866,83.606c-2.625-3.081-5.486-5.968-8.387-8.795c-2.387-2.323-4.881-4.571-7.529-6.587
			c-2.187-1.667-4.671-2.945-7.146-4.47c0.728-5.594,1.419-10.917,2.131-16.371c-0.841-0.528-1.983-1.244-2.824-1.771
			c0-2.866,0-5.269,0-7.648c-1.71-0.868-3.331-1.689-5.005-2.54c0-1.364,0-2.673,0-4.051c-4.32-2.05-8.581-4.072-12.714-6.035
			c0.132-1.649,0.229-2.887,0.369-4.631c-5.878,0-11.548,0-17.463,0c-0.887,2.503-1.856,5.237-2.88,8.13
			c-1.023-0.622-5.021-3.041-4.921-2.833c-21.182,8.934-38.984,17.211-47.34,38.821c-6.38,16.497-1.584,47.134,3.979,54.244
			c1.782-2.612,6.068-8.375,6.068-8.375s3.674,12.757,16.162,24.879l5.848-9.674c0,0,12.54,17.538,14.666,20.649
			c3.025-0.301,5.697-0.568,8.389-0.836c0.409,2.046-2.699,3.573-2.364,5.246c1.268-0.411,15.586-5.331,19.807-7.876
			c21.519-12.977,15.104-15.278,15.823-20.792c4.234-2.248,8.563,2.855,11.538,2.625c3.007-0.237,8.023-4.732,7.649-6.645
			c-0.973-4.978-4.326-5.632-1.032-14.458c0.581-1.554,1.66-5.511,2.459-9.272C168.21,93.957,174.654,90.402,168.866,83.606z
			 M127.166,30.67c3.478,1.159,6.411,2.133,9.565,3.184c-1.527,2.544-11.771,14.375-11.96,14.327
			C125.089,45.141,126.678,33.176,127.166,30.67z M104.037,32.03c6.09,4.14,9.203,10.418,13.794,15.652
			c-1.657-7.77-6.262-14.978-4.477-23.501c2.979-0.373,5.743-0.719,9.057-1.133c-1.008,4.9-1.58,23.118-2.73,28.264
			c-2.898-2.3-16.11-12.47-25.85-14C93.815,36.937,100.673,33.391,104.037,32.03z M58.419,86.972
			c0.038,0.031-0.063-0.009-0.063-0.055c-0.827-19.183,6.748-31.369,14.973-36.781c9.837-6.471,22.077-6.595,28.822-6.126
			c0,0-19.858,2.056-26.914,10.055c0,0,3.461,0.5,4.056,0.89c3.485-1.893,7.761-4.928,11.356-3.339
			C73.533,56.919,59.382,82.105,58.419,86.972z M108.541,126.656c-1.31-4.842-4.806-9.342-8.634-12.25
			c-2.729-2.071-7.96-5.638-8.32-5.44c7.191,8.099,12.188,16.891,10.979,28.109c-6.771-7.444-14.947-27.455-16.581-30.929
			c-1.478,3.687-2.701,6.737-4.093,10.21c-3.729-7.996-6.356-15.924-5.909-25.139c-3.286,3.342-6.57,6.684-10.203,10.379
			c0.821-6.131,1.612-11.912,4.064-17.379c3.566-7.953,10.027-12.967,17.62-17.784c-5.592,13.317-5.399,25.906,0.772,38.202
			c0.215-0.006-4.888-16.379,1.039-22.516c-0.649,15.953,6.076,17.236,17.44,32.613C108.405,117.016,108.747,122.52,108.541,126.656
			z M126.8,137.224c2.744-5.867,5.416-11.575,8.253-17.639c1.43,1.231,2.721,2.342,4.106,3.537
			C136.133,128.989,132.911,134.237,126.8,137.224z M154.533,119.926c-2.442-2.463-5.145-4.507-9-3.506
			c-0.105-0.234-0.212-0.469-0.316-0.703c3.369-3.065,6.737-6.131,10.457-9.514c0.399,4.411,0.759,8.376,1.111,12.266
			C155.903,119.041,155.363,119.391,154.533,119.926z M150.023,88.538c0.694,2.676,0.47,4.92,2.753,7.889
			c0.109-0.334,0.172-0.696,0.338-0.998c0.164-0.307,0.432-0.557,0.867-1.089c1.215,0.727,2.521,1.28,3.533,2.166
			c1.436,1.256,1.545,2.88,0.207,4.294c-1.305,1.384-2.717,2.691-4.22,3.853c-2.495,1.934-4.955,3.984-7.695,5.508
			c-3.411,1.892-7.476-0.009-8.161-3.848c-0.691-3.881,2.996-7.868,2.584-12.429c-2.537-0.526-9.436-1.308-12.6-1.794
			c-2.773-0.422-5.251-1.399-6.712-3.777c-1.393-2.274-3.56-3.784-5.878-2.359c-1.634,1.006,0.205,12.492,0.658,13.928
			c-1.356,0.101-2.214,0.161-3.63,0.262c-1.171-1.718-1.777-6.907-11.343-15.585c0.457,11.403,2.567,17.625,18.159,34.264
			c4.092,4.367,5.4,9.068,3.937,14.649c-0.964,3.683-7.736,8.296-8.501,8.369c0.92-1.137,3.92-4.689,3.811-10.519
			c-0.104-5.383-1.332-10.693-14.817-24.85c-7.599-7.986-7.004-20.259-7.189-20.361c-0.98,1.135-1.962,2.272-3.321,3.848
			c-0.104-4.041-2.454-17.333,6.098-18.798c0.071-0.515,0.149-1.06,0.26-1.841c-3.849-0.029-9.033-1.99-7.4-9.075
			c0.494-2.144,1.581-4.378,2.904-6.222c2.363-3.3,5.797-5.305,9.83-5.643c1.882-0.156,3.96,0.511,5.75,1.276
			c1.578,0.672,2.877,1.997,4.298,3.034c-0.079,0.22-15.708-2.526-18.429,6.684c-0.324,1.098,0.407,2.929,1.605,3.199
			c8.292,1.858,7.74,5.904,7.515,16.164c-0.096,4.254,2.225,8.703,5.516,10.965c0-1.034,0.123-1.961-0.021-2.847
			c-0.569-3.474-0.508-6.83,0.669-10.24c1.282-3.715,1.205-7.565-0.013-11.116c2.682-0.173,5.39-0.345,8.137-0.52
			c0.182-0.687,0.303-1.151,0.418-1.589c-1.126-0.286-2.135-0.54-3.634-0.92c1.135-0.753,2.203-0.841,2.538-1.692
			c0.224-0.564-0.486-1.194-0.409-1.737c0.499-3.593,4.859-4.521,8.487-3.725c1.586,0.348,3.19,0.687,4.713,1.236
			c1.439,0.517,2.781,1.301,4.169,1.969c0.3-0.985,0.563-1.847,0.895-2.928c-3.023-2.391-7.071-1.773-10.676-3.034
			c2.801-3.446,10.037-11.971,10.483-12.724c1.817,0.645,3.433,1.216,5.36,1.901c-0.382,1.248-2.643,6.432-3.12,7.314
			c-2.386-0.449-3.901,0.515-4.256,2.699c1.264,0.532,5.31,1.042,6.197,4.807c0.704,0.38,1.411,0.762,2.521,1.362
			c-0.297,1.688-3.744,8.598,1.528,11.375c4.215,2.22,8.484,4.673,11.854,7.92c3.304,3.183,7.832,5.455,9.432,10.555
			C165.56,88.118,155.231,88.538,150.023,88.538z"/>
		<path d="M136.522,67.099c-2.808-4.212-3.878-5.689-8.105-6.366c4.17,3.097,3.785,5.251,3.057,5.256
			c-4.207,0.026-9.178,2.616-8.047,3.21c2.643,1.385,7.191,4.279,9.147,3.149c1.579-0.914,1.107-2.124,2.371-3.149
			C135.143,69.038,137.474,68.527,136.522,67.099z"/>
		<path d="M133.733,73.678c0.043,0.841-0.139,1.563,0.143,1.896c0.601,0.711,1.411,1.267,2.191,1.805
			c3.589,2.481,7.974,4.197,8.584,10.191c2.012-1.725,3.47-2.973,5.349-4.583c-1.272-0.846-2.239-1.931-3.38-2.166
			C141.736,79.829,138.177,76.574,133.733,73.678z"/>
		<path d="M125.607,74.656c-0.709,0-2.04,0.724-2.17,1.821c-0.227,1.898,3.747,4.27,3.946,4.142
			c-0.354-0.642-0.707-1.285-1.14-2.068c1.418-0.274,2.644-0.509,4.086-0.788C129.611,76.761,127.979,74.655,125.607,74.656z"/>
	</g>
	<path fill="#FFFFFF" d="M126.88,69.855c0,0,2.596-1.806,3.452-1.432c0.664,0.292,0.716,1.958,1.123,2.679
		C131.743,71.615,128.597,70.04,126.88,69.855z"/>
	<g>
		<path fill="#ED2A24" d="M89.275,82.118c-5.927,6.138-0.824,22.511-1.039,22.517c-6.172-12.298-6.364-24.885-0.772-38.204
			c-7.593,4.817-14.054,9.833-17.62,17.785c-2.454,5.469-3.243,11.25-4.064,17.377c3.633-3.695,6.917-7.037,10.203-10.379
			c-0.447,9.214,2.181,17.143,5.909,25.138c1.392-3.473,2.615-6.523,4.093-10.209c1.634,3.474,9.81,23.487,16.581,30.929
			c1.21-11.215-3.787-20.007-10.979-28.106c0.36-0.198,5.591,3.367,8.32,5.438c3.828,2.911,7.324,7.408,8.634,12.253
			c0.206-4.136-0.136-9.641-1.825-11.927C95.351,99.355,88.625,98.069,89.275,82.118z"/>
		<path fill="#ED2A24" d="M90.649,51.616c-3.596-1.589-7.871,1.446-11.356,3.339c-0.595-0.388-4.056-0.89-4.056-0.89
			c7.056-8,26.914-10.055,26.914-10.055c-6.745-0.469-18.985-0.345-28.822,6.126c-8.225,5.412-15.8,17.597-14.973,36.781
			c0.001,0.046,0.102,0.085,0.063,0.055C59.382,82.105,73.533,56.919,90.649,51.616z"/>
		<path fill="#ED2A24" d="M126.8,137.224c6.111-2.987,9.333-8.235,12.359-14.102c-1.386-1.195-2.677-2.305-4.106-3.537
			C132.216,125.649,129.544,131.357,126.8,137.224z"/>
		<path fill="#ED2A24" d="M122.411,23.048c-3.313,0.414-6.077,0.76-9.057,1.133c-1.786,8.524,2.819,15.731,4.477,23.501
			c-4.594-5.235-7.705-11.512-13.796-15.652c-3.361,1.361-10.22,4.907-10.204,5.282c9.74,1.53,22.95,11.699,25.85,14
			C120.83,46.166,121.401,27.948,122.411,23.048z"/>
		<path fill="#ED2A24" d="M136.731,33.854c-3.154-1.05-6.088-2.025-9.565-3.184c-0.488,2.506-2.077,14.471-2.395,17.511
			C124.96,48.229,135.204,36.398,136.731,33.854z"/>
		<path fill="#ED2A24" d="M145.217,115.72c0.106,0.234,0.213,0.468,0.316,0.703c3.855-1.004,6.558,1.04,9.001,3.503
			c0.829-0.536,1.369-0.885,2.251-1.454c-0.353-3.89-0.712-7.855-1.111-12.266C151.956,109.586,148.586,112.652,145.217,115.72z"/>
		<path fill="#ED2A24" d="M156.591,77.209c-3.37-3.246-7.64-5.701-11.854-7.919c-5.272-2.776-1.826-9.687-1.528-11.376
			c-1.11-0.599-1.817-0.981-2.521-1.362c-0.888-3.764-4.934-4.274-6.197-4.805c0.353-2.185,1.87-3.149,4.256-2.701
			c0.478-0.88,2.738-6.064,3.12-7.312c-1.928-0.685-3.543-1.256-5.36-1.901c-0.446,0.751-7.683,9.277-10.483,12.724
			c3.606,1.26,7.652,0.643,10.676,3.034c-0.332,1.081-0.595,1.943-0.895,2.928c-1.388-0.669-2.729-1.454-4.169-1.969
			c-1.522-0.551-3.127-0.888-4.713-1.236c-3.628-0.797-7.988,0.132-8.487,3.724c-0.076,0.543,0.633,1.172,0.409,1.738
			c-0.335,0.851-1.403,0.938-2.538,1.692c1.499,0.381,2.508,0.635,3.634,0.92c-0.115,0.438-0.236,0.902-0.418,1.589
			c-2.747,0.173-5.455,0.347-8.137,0.519c1.217,3.552,1.294,7.402,0.013,11.115c-1.177,3.411-1.238,6.767-0.669,10.242
			c0.145,0.882,0.021,1.813,0.021,2.847c-3.291-2.263-5.611-6.712-5.516-10.967c0.227-10.258,0.777-14.306-7.515-16.164
			c-1.198-0.27-1.93-2.099-1.605-3.197c2.722-9.21,18.35-6.464,18.429-6.684c-1.421-1.039-2.72-2.361-4.298-3.035
			c-1.79-0.763-3.868-1.431-5.75-1.274c-4.033,0.336-7.467,2.342-9.83,5.643c-1.323,1.844-2.41,4.078-2.904,6.222
			c-1.633,7.083,3.552,9.046,7.4,9.074c-0.11,0.782-0.188,1.326-0.26,1.843c-8.552,1.463-6.201,14.756-6.098,18.798
			c1.359-1.575,2.341-2.712,3.321-3.849c0.186,0.104-0.409,12.376,7.189,20.363c13.485,14.157,14.713,19.464,14.817,24.846
			c0.109,5.833-2.891,9.382-3.811,10.522c0.765-0.073,7.537-4.689,8.501-8.369c1.464-5.581,0.155-10.282-3.937-14.649
			c-15.591-16.639-17.702-22.864-18.159-34.264c9.566,8.678,10.172,13.867,11.343,15.585c1.416-0.101,2.273-0.165,3.63-0.262
			c-0.453-1.436-2.292-12.922-0.658-13.928c2.318-1.426,4.485,0.085,5.878,2.359c1.461,2.378,3.938,3.351,6.712,3.777
			c3.164,0.487,10.063,1.269,12.6,1.794c0.412,4.562-3.275,8.548-2.584,12.429c0.686,3.838,4.75,5.736,8.161,3.848
			c2.74-1.524,5.2-3.574,7.695-5.508c1.503-1.165,2.915-2.472,4.22-3.853c1.338-1.414,1.229-3.041-0.207-4.294
			c-1.013-0.885-2.318-1.438-3.533-2.166c-0.436,0.532-0.703,0.782-0.867,1.089c-0.166,0.301-0.229,0.663-0.338,0.998
			c-2.283-2.968-2.059-5.212-2.753-7.892c5.208,0,15.536-0.417,15.999-0.77C164.423,82.665,159.895,80.392,156.591,77.209z
			 M126.244,78.552c0.433,0.783,0.786,1.426,1.14,2.069c-0.198,0.126-4.171-2.246-3.946-4.144c0.13-1.098,1.461-1.82,2.17-1.82
			c2.372-0.003,4.004,2.103,4.725,3.108C128.888,78.042,127.662,78.28,126.244,78.552z M132.574,72.348
			c-1.956,1.13-6.505-1.765-9.147-3.149c-1.131-0.594,3.84-3.184,8.047-3.21c0.729-0.004,1.113-2.159-3.057-5.256
			c4.228,0.677,5.298,2.154,8.105,6.366c0.953,1.428-1.38,1.938-1.577,2.1C133.682,70.224,134.153,71.434,132.574,72.348z
			 M144.652,87.571c-0.611-5.995-4.996-7.71-8.585-10.191c-0.78-0.538-1.591-1.093-2.191-1.805
			c-0.281-0.333-0.099-1.056-0.141-1.896c4.442,2.897,8.001,6.151,12.887,7.145c1.14,0.233,2.107,1.32,3.378,2.164
			C148.121,84.598,146.663,85.846,144.652,87.571z"/>
	</g>
</g>
</svg>
