<?xml version="1.0" encoding="utf-8"?>
<!-- Generator: Adobe Illustrator 16.0.3, SVG Export Plug-In . SVG Version: 6.00 Build 0)  -->
<!DOCTYPE svg PUBLIC "-//W3C//DTD SVG 1.1//EN" "http://www.w3.org/Graphics/SVG/1.1/DTD/svg11.dtd">
<svg version="1.1" id="Layer_1" xmlns="http://www.w3.org/2000/svg" xmlns:xlink="http://www.w3.org/1999/xlink" x="0px" y="0px"
	 width="595.28px" height="841.89px" viewBox="0 0 595.28 841.89" enable-background="new 0 0 595.28 841.89" xml:space="preserve">
<circle fill="#FFFFFF" stroke="#000000" stroke-width="10" stroke-miterlimit="10" cx="297.64" cy="420.945" r="215.625"/>
<polygon points="115.673,375.502 116.704,381.785 110.207,392.621 113.813,404.738 108.719,416.298 113.813,427.864 
	110.207,439.981 116.704,450.813 114.658,463.281 122.458,473.224 121.989,485.843 130.978,494.727 131.341,498.84 297.64,493.991 
	463.939,498.84 464.303,494.727 473.29,485.843 472.821,473.224 480.623,463.281 478.566,450.813 485.063,439.981 481.466,427.864 
	486.561,416.298 481.466,404.738 485.063,392.621 478.676,381.967 297.64,401.701 "/>
<g>
	<path d="M226.894,576.444h-5.112v-13.261c0-1.02-0.054-1.673-0.158-1.961c-0.21-0.602-0.708-0.902-1.494-0.902
		c-1.075,0-2.242,0.563-3.501,1.688v14.437h-4.994v-13.032c0-1.044-0.065-1.748-0.197-2.113c-0.238-0.652-0.779-0.979-1.625-0.979
		c-1.162,0-2.324,0.509-3.486,1.525v14.599h-5.112v-14.039c0-2.543-0.249-4.262-0.747-5.152l4.758-1.298
		c0.289,0.473,0.524,1.153,0.709,2.046c1.414-1.364,3.053-2.046,4.915-2.046c1.651,0,3.015,0.551,4.09,1.651
		c0.21,0.236,0.472,0.564,0.786,0.983c1.73-1.757,3.631-2.636,5.703-2.636c2.018,0,3.46,0.537,4.324,1.612
		c0.762,0.971,1.141,2.491,1.141,4.563v14.315H226.894z"/>
	<path d="M248.68,566.296c0,3.068-0.747,5.561-2.241,7.474c-1.626,2.071-3.933,3.105-6.922,3.105c-2.91,0-5.178-1.034-6.803-3.105
		c-1.494-1.889-2.242-4.327-2.242-7.315c0-2.989,0.748-5.44,2.242-7.354c1.625-2.125,3.894-3.187,6.803-3.187
		c2.937,0,5.23,1.023,6.883,3.068C247.919,560.871,248.68,563.309,248.68,566.296z M242.938,566.276
		c0-1.839-0.145-3.221-0.433-4.141c-0.498-1.551-1.469-2.326-2.911-2.326c-1.389,0-2.333,0.802-2.83,2.405
		c-0.289,0.921-0.434,2.302-0.434,4.143c0,1.998,0.131,3.432,0.395,4.297c0.471,1.632,1.455,2.447,2.949,2.447
		C241.851,573.101,242.938,570.827,242.938,566.276z"/>
	<path d="M266.18,572.786l-1.258,3.658h-14.827v-3.265l9.492-13.057h-8.705v-3.695h14.943v3.617l-8.887,12.741H266.18
		L266.18,572.786z"/>
	<path d="M274.753,550.763c0,0.918-0.314,1.691-0.945,2.32c-0.627,0.629-1.402,0.943-2.319,0.943c-0.892,0-1.651-0.32-2.28-0.963
		s-0.944-1.409-0.944-2.301c0-0.918,0.321-1.691,0.963-2.319c0.643-0.63,1.423-0.944,2.34-0.944s1.678,0.314,2.282,0.944
		C274.45,549.072,274.753,549.846,274.753,550.763z M274.124,576.444h-5.27v-19.818l5.27-0.828V576.444z"/>
	<path d="M287.141,576.398c-0.943,0.371-1.993,0.557-3.146,0.557c-2.439,0-4-0.919-4.68-2.756c-0.316-0.841-0.474-2.35-0.474-4.528
		v-15.042c0-2.363-0.092-4.386-0.274-6.065l5.388-1.221c0.184,1.022,0.276,2.767,0.276,5.23v15.691c0,2.019,0,3.002,0,2.949
		c0.13,1.391,0.603,2.084,1.415,2.084c0.21,0,0.406-0.026,0.591-0.078L287.141,576.398z"/>
	<path d="M297.719,576.398c-0.943,0.371-1.991,0.557-3.146,0.557c-2.438,0-3.998-0.919-4.68-2.756
		c-0.314-0.841-0.472-2.35-0.472-4.528v-15.042c0-2.363-0.091-4.386-0.274-6.065l5.387-1.221c0.184,1.022,0.275,2.767,0.275,5.23
		v15.691c0,2.019,0,3.002,0,2.949c0.132,1.391,0.604,2.084,1.416,2.084c0.209,0,0.407-0.026,0.59-0.078L297.719,576.398z"/>
	<path d="M316.637,574.241l-2.794,3.226c-1.362-0.577-2.307-1.39-2.831-2.439c-0.524,0.5-0.931,0.853-1.219,1.063
		c-1.023,0.733-2.373,1.101-4.051,1.101c-2.149,0-3.814-0.51-4.995-1.528c-1.284-1.072-1.927-2.653-1.927-4.745
		c0-4.6,3.213-6.9,9.64-6.9c0.417,0,0.81,0,1.177,0V563.2c0-1.064-0.132-1.79-0.394-2.179c-0.313-0.52-0.966-0.78-1.959-0.78
		c-1.618,0-3.553,0.747-5.796,2.242l-2.234-3.775c0.943-0.603,2.031-1.153,3.264-1.652c1.939-0.786,3.775-1.179,5.506-1.179
		c3.513,0,5.676,1.167,6.488,3.499c0.263,0.761,0.38,1.968,0.354,3.618l-0.118,7.117c0,1.051,0.104,1.838,0.314,2.361
		C315.325,573.076,315.85,573.666,316.637,574.241z M309.518,567.634h-0.231c-1.576,0-2.673,0.132-3.292,0.394
		c-1.033,0.446-1.55,1.337-1.55,2.674c0,0.734,0.203,1.356,0.609,1.868c0.407,0.512,0.978,0.767,1.711,0.767
		c0.996,0,1.914-0.458,2.753-1.377V567.634z"/>
	<path d="M333.625,553.91c0-2.544-0.185-4.353-0.551-5.427l3.186-0.63c0.313,0.915,0.472,2.928,0.472,6.039v18.546
		c0,0.654,0.04,1.099,0.118,1.334c0.156,0.417,0.483,0.627,0.983,0.627c0.078,0,0.209,0,0.393,0l0.629,2.006
		c-0.629,0.288-1.283,0.432-1.967,0.432c-0.943,0-1.723-0.281-2.339-0.845c-0.616-0.564-0.924-1.486-0.924-2.772V553.91
		L333.625,553.91z"/>
	<path d="M341.961,561.067l6.725-4.562h2.399v17.461h3.618v2.478H344.36v-2.478h3.618v-13.726c-0.971,0.63-2.754,1.47-5.348,2.518
		L341.961,561.067z"/>
	<path d="M366.619,577.111c-2.807,0-4.982-0.923-6.528-2.771c-1.547-1.849-2.321-4.397-2.321-7.648c0-3.173,0.794-5.676,2.379-7.511
		c1.587-1.836,3.717-2.753,6.391-2.753c2.806,0,4.982,0.924,6.53,2.771c1.545,1.849,2.319,4.398,2.319,7.648
		c0,3.174-0.794,5.677-2.379,7.512C371.422,576.195,369.293,577.111,366.619,577.111z M360.995,566.179
		c0,2.937,0.445,5.067,1.337,6.391c0.891,1.324,2.333,1.987,4.326,1.987c3.669,0,5.505-2.399,5.505-7.198
		c0-2.936-0.446-5.066-1.337-6.391c-0.891-1.322-2.334-1.985-4.326-1.985C362.829,558.983,360.995,561.382,360.995,566.179z"/>
	<path d="M380.421,561.882c0-1.335-0.039-2.25-0.117-2.747s-0.287-1.126-0.629-1.884l2.988-0.824
		c0.472,1.008,0.709,2.018,0.709,3.027c2.018-2.02,4.076-3.027,6.173-3.027c1.05,0,2.012,0.261,2.892,0.786
		c0.877,0.525,1.514,1.219,1.906,2.084c0.314,0.708,0.472,1.469,0.472,2.281v14.866h-3.105v-13.254c0-1.651-0.243-2.746-0.728-3.284
		c-0.485-0.536-1.2-0.806-2.145-0.806c-0.785,0-1.71,0.27-2.771,0.806c-1.063,0.538-1.945,1.187-2.655,1.947v14.591h-2.987v-14.563
		H380.421z"/>
</g>
<g>
	<path d="M365.987,310.287c-3.134-3.681-6.552-7.13-10.016-10.505c-2.853-2.776-5.83-5.462-8.993-7.87
		c-2.612-1.989-5.58-3.518-8.535-5.338c0.869-6.681,1.696-13.041,2.545-19.555c-1.004-0.63-2.367-1.486-3.372-2.117
		c0-3.423,0-6.292,0-9.135c-2.043-1.037-3.979-2.018-5.979-3.033c0-1.629,0-3.193,0-4.839c-5.161-2.448-10.252-4.863-15.188-7.208
		c0.158-1.971,0.275-3.449,0.442-5.533c-7.021,0-13.794,0-20.86,0c-1.06,2.989-2.218,6.256-3.441,9.713
		c-1.221-0.744-5.995-3.634-5.876-3.384c-25.302,10.668-46.563,20.557-56.544,46.368c-7.621,19.706-1.895,56.302,4.752,64.794
		c2.127-3.122,7.247-10.004,7.247-10.004s4.388,15.239,19.304,29.719l6.985-11.557c0,0,14.979,20.951,17.519,24.666
		c3.613-0.359,6.805-0.678,10.02-0.999c0.488,2.443-3.224,4.267-2.824,6.268c1.515-0.492,18.616-6.368,23.661-9.41
		c25.7-15.498,18.039-18.249,18.897-24.834c5.058-2.684,10.231,3.411,13.783,3.133c3.593-0.28,9.582-5.649,9.135-7.934
		c-1.162-5.949-5.165-6.73-1.232-17.272c0.693-1.855,1.982-6.582,2.937-11.075C365.204,322.652,372.902,318.406,365.987,310.287z
		 M316.181,247.057c4.153,1.383,7.657,2.548,11.426,3.802c-1.825,3.038-14.063,17.171-14.288,17.112
		C313.699,264.341,315.596,250.05,316.181,247.057z M288.552,248.679c7.275,4.947,10.992,12.446,16.478,18.698
		c-1.979-9.281-7.478-17.891-5.346-28.073c3.558-0.444,6.86-0.858,10.817-1.353c-1.205,5.853-1.888,27.615-3.262,33.762
		c-3.463-2.75-19.242-14.895-30.877-16.724C276.344,254.54,284.535,250.306,288.552,248.679z M234.067,314.307
		c0.045,0.036-0.075-0.01-0.078-0.066c-0.987-22.914,8.06-37.468,17.883-43.933c11.75-7.73,26.371-7.877,34.428-7.32
		c0,0-23.721,2.458-32.148,12.013c0,0,4.136,0.598,4.845,1.061c4.164-2.26,9.271-5.886,13.566-3.987
		C252.117,278.409,235.216,308.494,234.067,314.307z M293.933,361.708c-1.563-5.784-5.74-11.159-10.313-14.633
		c-3.259-2.474-9.508-6.733-9.938-6.497c8.59,9.673,14.559,20.176,13.115,33.574c-8.089-8.892-17.856-32.795-19.807-36.943
		c-1.766,4.402-3.227,8.046-4.889,12.193c-4.453-9.549-7.593-19.02-7.059-30.026c-3.924,3.993-7.848,7.986-12.187,12.398
		c0.981-7.322,1.925-14.228,4.854-20.758c4.26-9.499,11.977-15.49,21.047-21.244c-6.68,15.909-6.449,30.943,0.923,45.633
		c0.257-0.007-5.839-19.565,1.241-26.896c-0.775,19.054,7.258,20.589,20.832,38.953
		C293.771,350.193,294.179,356.769,293.933,361.708z M315.742,374.332c3.28-7.009,6.471-13.828,9.858-21.071
		c1.708,1.47,3.251,2.798,4.904,4.226C326.89,364.496,323.042,370.765,315.742,374.332z M348.869,353.669
		c-2.918-2.943-6.143-5.385-10.75-4.188c-0.125-0.279-0.253-0.56-0.377-0.839c4.024-3.662,8.047-7.325,12.489-11.363
		c0.477,5.267,0.905,10.004,1.327,14.651C350.508,352.611,349.86,353.028,348.869,353.669z M343.483,316.176
		c0.829,3.197,0.562,5.88,3.289,9.422c0.129-0.399,0.204-0.829,0.402-1.189c0.198-0.365,0.517-0.665,1.034-1.301
		c1.453,0.869,3.011,1.531,4.221,2.588c1.716,1.498,1.846,3.439,0.247,5.128c-1.558,1.652-3.243,3.214-5.039,4.603
		c-2.979,2.309-5.919,4.758-9.193,6.578c-4.071,2.259-8.926-0.009-9.746-4.594c-0.826-4.634,3.578-9.396,3.087-14.845
		c-3.029-0.628-11.272-1.562-15.052-2.143c-3.312-0.507-6.271-1.673-8.016-4.515c-1.665-2.715-4.252-4.519-7.024-2.815
		c-1.95,1.201,0.247,14.92,0.788,16.636c-1.62,0.119-2.645,0.192-4.335,0.314c-1.397-2.053-2.122-8.251-13.549-18.618
		c0.545,13.62,3.067,21.053,21.69,40.928c4.886,5.216,6.45,10.831,4.702,17.498c-1.153,4.397-9.242,9.909-10.155,9.998
		c1.097-1.36,4.683-5.604,4.55-12.567c-0.121-6.43-1.591-12.769-17.695-29.682c-9.077-9.536-8.367-24.198-8.587-24.319
		c-1.173,1.357-2.346,2.716-3.968,4.597c-0.125-4.828-2.933-20.707,7.282-22.455c0.087-0.617,0.178-1.267,0.311-2.2
		c-4.597-0.034-10.791-2.378-8.839-10.839c0.59-2.561,1.89-5.229,3.468-7.432c2.822-3.942,6.924-6.338,11.743-6.741
		c2.247-0.187,4.729,0.612,6.867,1.524c1.884,0.803,3.438,2.383,5.134,3.624c-0.094,0.263-18.762-3.018-22.013,7.984
		c-0.387,1.311,0.486,3.498,1.918,3.818c9.904,2.221,9.247,7.054,8.976,19.308c-0.113,5.082,2.659,10.396,6.588,13.099
		c0-1.234,0.146-2.344-0.025-3.402c-0.68-4.147-0.605-8.157,0.801-12.23c1.529-4.437,1.439-9.035-0.016-13.278
		c3.201-0.206,6.438-0.412,9.719-0.62c0.216-0.822,0.363-1.375,0.5-1.898c-1.347-0.341-2.552-0.645-4.343-1.098
		c1.355-0.9,2.633-1.005,3.033-2.021c0.266-0.675-0.581-1.429-0.489-2.075c0.596-4.292,5.806-5.401,10.141-4.449
		c1.893,0.415,3.809,0.82,5.626,1.476c1.722,0.617,3.322,1.554,4.98,2.353c0.357-1.178,0.673-2.208,1.068-3.498
		c-3.611-2.855-8.444-2.118-12.752-3.623c3.346-4.117,11.99-14.302,12.522-15.199c2.171,0.769,4.1,1.453,6.404,2.27
		c-0.457,1.491-3.157,7.683-3.729,8.735c-2.849-0.534-4.66,0.615-5.084,3.226c1.509,0.635,6.342,1.245,7.404,5.74
		c0.841,0.455,1.685,0.911,3.011,1.627c-0.354,2.019-4.472,10.271,1.824,13.587c5.036,2.651,10.137,5.582,14.161,9.46
		c3.945,3.801,9.354,6.515,11.265,12.609C362.038,315.675,349.703,316.176,343.483,316.176z"/>
	<path d="M324.025,298.427c0.051,1.005-0.167,1.867,0.17,2.265c0.718,0.85,1.686,1.514,2.617,2.157
		c4.287,2.963,9.524,5.012,10.253,12.173c2.403-2.062,4.145-3.552,6.39-5.476c-1.521-1.009-2.676-2.307-4.037-2.585
		C333.585,305.774,329.332,301.886,324.025,298.427z"/>
	<path d="M314.318,299.596c-0.847,0-2.438,0.865-2.591,2.175c-0.271,2.268,4.476,5.101,4.711,4.948
		c-0.42-0.767-0.844-1.535-1.358-2.47c1.693-0.326,3.156-0.608,4.88-0.94C319.102,302.108,317.151,299.593,314.318,299.596z"/>
	<path d="M327.356,290.567c-3.353-5.029-4.633-6.793-9.683-7.602c4.98,3.698,4.521,6.272,3.651,6.277
		c-5.024,0.03-10.963,3.125-9.612,3.833c3.158,1.655,8.59,5.112,10.927,3.762c1.888-1.09,1.323-2.537,2.832-3.761
		C325.709,292.884,328.493,292.274,327.356,290.567z M315.839,293.862c0,0,3.1-2.159,4.123-1.711
		c0.793,0.349,0.855,2.338,1.341,3.199C321.646,295.962,317.889,294.081,315.839,293.862z"/>
	<g>
		<path fill="#FFFFFF" d="M270.921,308.508c-7.08,7.33-0.984,26.887-1.241,26.895c-7.372-14.689-7.603-29.724-0.923-45.632
			c-9.07,5.754-16.787,11.746-21.047,21.243c-2.931,6.531-3.873,13.438-4.854,20.759c4.339-4.414,8.263-8.405,12.187-12.398
			c-0.534,11.007,2.605,20.477,7.059,30.027c1.662-4.147,3.123-7.792,4.889-12.193c1.95,4.147,11.718,28.051,19.807,36.943
			c1.443-13.397-4.525-23.9-13.115-33.575c0.431-0.235,6.68,4.023,9.938,6.497c4.573,3.474,8.75,8.849,10.313,14.633
			c0.246-4.939-0.162-11.515-2.181-14.247C278.179,329.097,270.146,327.563,270.921,308.508z"/>
		<path fill="#FFFFFF" d="M272.563,272.076c-4.296-1.899-9.402,1.727-13.566,3.987c-0.709-0.462-4.845-1.061-4.845-1.061
			c8.428-9.556,32.148-12.013,32.148-12.013c-8.057-0.557-22.678-0.411-34.428,7.32c-9.823,6.464-18.87,21.019-17.883,43.933
			c0.003,0.056,0.123,0.102,0.078,0.066C235.216,308.494,252.117,278.409,272.563,272.076z"/>
		<path fill="#FFFFFF" d="M315.742,374.332c7.3-3.567,11.148-9.837,14.763-16.845c-1.655-1.427-3.196-2.755-4.904-4.226
			C322.213,360.504,319.022,367.325,315.742,374.332z"/>
		<path fill="#FFFFFF" d="M310.501,237.951c-3.958,0.495-7.26,0.909-10.818,1.353c-2.131,10.182,3.367,18.792,5.347,28.073
			c-5.486-6.253-9.202-13.751-16.478-18.698c-4.017,1.627-12.208,5.861-12.189,6.31c11.635,1.829,27.413,13.975,30.876,16.724
			C308.611,265.566,309.295,243.804,310.501,237.951z"/>
		<path fill="#FFFFFF" d="M327.606,250.859c-3.769-1.254-7.272-2.419-11.426-3.802c-0.585,2.993-2.481,17.284-2.862,20.914
			C313.544,268.03,325.781,253.897,327.606,250.859z"/>
		<path fill="#FFFFFF" d="M337.742,348.644c0.126,0.279,0.253,0.56,0.378,0.839c4.606-1.197,7.831,1.243,10.75,4.187
			c0.99-0.64,1.638-1.057,2.688-1.738c-0.422-4.646-0.851-9.383-1.327-14.651C345.79,341.317,341.767,344.98,337.742,348.644z"/>
		<path fill="#FFFFFF" d="M351.327,302.646c-4.024-3.879-9.125-6.809-14.161-9.46c-6.296-3.317-2.18-11.569-1.824-13.586
			c-1.326-0.717-2.17-1.172-3.011-1.627c-1.063-4.496-5.896-5.105-7.404-5.74c0.423-2.611,2.234-3.76,5.084-3.226
			c0.571-1.051,3.271-7.244,3.729-8.735c-2.305-0.816-4.233-1.501-6.404-2.27c-0.532,0.897-9.177,11.082-12.522,15.199
			c4.309,1.506,9.141,0.769,12.752,3.623c-0.396,1.292-0.711,2.321-1.068,3.498c-1.658-0.798-3.259-1.735-4.98-2.352
			c-1.817-0.656-3.733-1.061-5.626-1.476c-4.336-0.952-9.545,0.158-10.141,4.449c-0.091,0.647,0.755,1.4,0.489,2.075
			c-0.4,1.016-1.678,1.12-3.033,2.021c1.791,0.454,2.996,0.758,4.343,1.099c-0.137,0.522-0.284,1.076-0.5,1.898
			c-3.28,0.209-6.518,0.415-9.719,0.62c1.455,4.244,1.545,8.841,0.016,13.277c-1.406,4.074-1.48,8.083-0.801,12.232
			c0.172,1.057,0.025,2.166,0.025,3.4c-3.929-2.702-6.701-8.016-6.588-13.098c0.271-12.254,0.929-17.088-8.976-19.308
			c-1.432-0.321-2.305-2.508-1.918-3.818c3.251-11.001,21.919-7.72,22.013-7.984c-1.696-1.241-3.25-2.822-5.134-3.624
			c-2.138-0.912-4.62-1.711-6.867-1.524c-4.819,0.403-8.921,2.799-11.743,6.741c-1.58,2.203-2.878,4.872-3.468,7.433
			c-1.952,8.46,4.242,10.805,8.839,10.838c-0.133,0.933-0.224,1.583-0.311,2.2c-10.215,1.749-7.407,17.626-7.282,22.454
			c1.622-1.88,2.795-3.239,3.968-4.597c0.22,0.123-0.49,14.785,8.587,24.321c16.104,16.911,17.574,23.251,17.695,29.68
			c0.133,6.965-3.452,11.208-4.55,12.568c0.913-0.088,9.002-5.6,10.155-9.997c1.748-6.667,0.184-12.284-4.702-17.498
			c-18.623-19.875-21.146-27.309-21.69-40.928c11.429,10.367,12.151,16.565,13.549,18.618c1.69-0.124,2.714-0.196,4.335-0.314
			c-0.541-1.716-2.738-15.435-0.788-16.637c2.771-1.703,5.359,0.101,7.024,2.816c1.745,2.842,4.704,4.006,8.016,4.513
			c3.779,0.583,12.022,1.514,15.052,2.143c0.491,5.45-3.915,10.212-3.087,14.846c0.82,4.586,5.675,6.853,9.746,4.595
			c3.274-1.82,6.215-4.269,9.193-6.579c1.796-1.389,3.481-2.951,5.039-4.603c1.598-1.689,1.467-3.63-0.247-5.127
			c-1.21-1.058-2.768-1.721-4.221-2.588c-0.518,0.637-0.837,0.936-1.034,1.301c-0.198,0.36-0.274,0.79-0.402,1.189
			c-2.728-3.543-2.46-6.225-3.289-9.423c6.22,0,18.555-0.5,19.108-0.921C360.682,309.161,355.272,306.447,351.327,302.646z
			 M315.08,304.249c0.515,0.936,0.938,1.704,1.358,2.472c-0.234,0.151-4.981-2.682-4.711-4.948c0.153-1.311,1.744-2.175,2.591-2.175
			c2.833-0.003,4.783,2.512,5.644,3.713C318.236,303.641,316.773,303.923,315.08,304.249z M322.64,296.838
			c-2.337,1.35-7.769-2.107-10.927-3.762c-1.351-0.708,4.588-3.804,9.612-3.833c0.87-0.005,1.329-2.579-3.651-6.277
			c5.05,0.809,6.33,2.572,9.683,7.602c1.139,1.707-1.647,2.317-1.885,2.51C323.963,294.3,324.527,295.748,322.64,296.838z
			 M337.067,315.022c-0.73-7.161-5.967-9.21-10.255-12.173c-0.931-0.644-1.899-1.307-2.617-2.157
			c-0.336-0.397-0.118-1.26-0.169-2.265c5.307,3.46,9.559,7.347,15.393,8.535c1.362,0.277,2.517,1.577,4.037,2.585
			C341.21,311.47,339.469,312.962,337.067,315.022z"/>
	</g>
</g>
<rect x="96.022" y="423.89" fill="none" width="403.235" height="110"/>
<text transform="matrix(1 0 0 1 160.6318 469.4292)" fill="#FFFFFF" font-family="'FiraSans-Bold'" font-size="60">3rd PLACE</text>
<rect x="99.05" y="515.89" fill="none" width="397.181" height="33.369"/>
<text transform="matrix(1 0 0 1 150.4102 531.7456)" font-family="'FiraSansMedium'" font-size="21">Ljubljana L10n Hackathon 2016</text>
<polygon fill="none" stroke="#000000" stroke-width="4" stroke-miterlimit="10" points="297.638,223.335 310.361,218.671 
	322.405,224.899 335.615,221.864 346.788,229.546 360.272,228.191 370.384,237.213 383.932,237.559 392.839,247.782 
	406.243,249.826 413.795,261.079 426.83,264.78 432.911,276.9 445.379,282.207 449.898,294.987 461.604,301.817 464.481,315.063 
	475.246,323.309 476.438,336.81 486.079,346.336 485.577,359.884 493.947,370.541 491.741,383.917 498.71,395.542 494.852,408.542 
	500.316,420.944 494.852,433.352 498.71,446.351 491.741,457.971 493.947,471.348 485.577,482.014 486.079,495.553 476.438,505.083 
	475.246,518.59 464.481,526.83 461.604,540.077 449.898,546.902 445.379,559.681 432.911,564.995 426.83,577.113 413.795,580.815 
	406.243,592.066 392.839,594.116 383.932,604.331 370.384,604.679 360.272,613.698 346.788,612.342 335.615,620.026 
	322.405,616.999 310.361,623.218 297.638,618.554 284.919,623.218 272.873,616.999 259.663,620.026 248.491,612.342 
	235.009,613.698 224.896,604.679 211.347,604.331 202.446,594.116 189.042,592.066 181.487,580.815 168.444,577.113 
	162.369,564.995 149.9,559.681 145.38,546.902 133.671,540.077 130.791,526.83 120.033,518.59 118.842,505.083 109.2,495.553 
	109.702,482.014 101.334,471.348 103.529,457.971 96.56,446.351 100.429,433.352 94.962,420.944 100.429,408.542 96.56,395.542 
	103.529,383.917 101.334,370.541 109.702,359.884 109.2,346.336 118.842,336.81 120.033,323.309 130.791,315.063 133.671,301.817 
	145.38,294.987 149.9,282.207 162.369,276.9 168.444,264.78 181.487,261.079 189.042,249.826 202.446,247.782 211.347,237.559 
	224.896,237.213 235.009,228.191 248.491,229.546 259.663,221.864 272.873,224.899 284.919,218.671 "/>
<path fill="#ED2A24" d="M297.64,481.613"/>
<path fill="#ED2A24" d="M297.64,481.613"/>
<path fill="#ED2A24" d="M297.64,501.613"/>
</svg>
