<?xml version="1.0" encoding="utf-8"?>
<!-- Generator: Adobe Illustrator 16.0.3, SVG Export Plug-In . SVG Version: 6.00 Build 0)  -->
<!DOCTYPE svg PUBLIC "-//W3C//DTD SVG 1.1//EN" "http://www.w3.org/Graphics/SVG/1.1/DTD/svg11.dtd">
<svg version="1.1" id="Layer_1" xmlns="http://www.w3.org/2000/svg" xmlns:xlink="http://www.w3.org/1999/xlink" x="0px" y="0px"
	 width="2383.938px" height="1683.779px" viewBox="0 0 2383.938 1683.779" enable-background="new 0 0 2383.938 1683.779"
	 xml:space="preserve">
<rect y="-177.458" fill="#ED2B24" width="283.464" height="1989.199"/>
<rect x="2069.715" y="-335.325" fill="#ED2B24" width="283.465" height="2097.21"/>
<rect x="2100.473" y="-328.538" fill="#ED2B24" width="283.465" height="2097.21"/>
<rect x="-133.07" y="0" fill="#ED2B24" width="2626.635" height="283.464"/>
<rect x="-398.313" y="1400.315" fill="#ED2B24" width="3233.809" height="283.464"/>
<polygon display="none" fill="#ED2A24" points="-518.569,736.429 -234.236,766.429 50.098,746.429 50.098,881.097 -234.236,871.097 
	-518.569,881.097 "/>
<polygon display="none" opacity="0.05" fill="#222222" points="1368.92,974.83 1191.969,985.374 1015.018,974.83 1015.018,586.374 
	1191.969,586.374 1368.92,586.374 "/>
<g>
	<g>
		<path d="M1333.444,1493.263c-6.487-7.617-13.561-14.758-20.732-21.744c-5.903-5.75-12.068-11.306-18.614-16.29
			c-5.407-4.117-11.551-7.281-17.667-11.051c1.799-13.828,3.509-26.992,5.268-40.477c-2.077-1.304-4.901-3.077-6.981-4.382
			c0-7.087,0-13.023,0-18.908c-4.228-2.147-8.237-4.179-12.374-6.279c0-3.371,0-6.607,0-10.017
			c-10.685-5.067-21.22-10.067-31.438-14.92c0.328-4.083,0.567-7.14,0.914-11.454c-14.534,0-28.552,0-43.179,0
			c-2.192,6.188-4.589,12.949-7.121,20.105c-2.529-1.541-12.411-7.521-12.166-7.003c-52.372,22.083-96.385,42.552-117.046,95.98
			c-15.772,40.787-3.916,116.543,9.838,134.117c4.406-6.46,15.004-20.707,15.004-20.707s9.08,31.545,39.957,61.517l14.458-23.924
			c0,0,31.008,43.37,36.261,51.06c7.482-0.744,14.09-1.405,20.743-2.067c1.01,5.059-6.675,8.833-5.845,12.973
			c3.135-1.02,38.534-13.183,48.974-19.479c53.202-32.079,37.343-37.774,39.119-51.403c10.472-5.557,21.179,7.059,28.531,6.482
			c7.435-0.58,19.833-11.693,18.91-16.423c-2.408-12.314-10.694-13.932-2.553-35.752c1.434-3.842,4.104-13.623,6.077-22.926
			C1331.823,1518.858,1347.758,1510.069,1333.444,1493.263z M1230.348,1362.38c8.597,2.864,15.849,5.275,23.652,7.872
			c-3.779,6.289-29.109,35.544-29.576,35.421C1225.212,1398.156,1229.138,1368.577,1230.348,1362.38z M1173.158,1365.739
			c15.059,10.238,22.751,25.762,34.106,38.702c-4.099-19.21-15.48-37.032-11.064-58.109c7.361-0.919,14.199-1.777,22.392-2.8
			c-2.496,12.115-3.909,57.16-6.753,69.886c-7.167-5.69-39.828-30.833-63.914-34.617
			C1147.888,1377.872,1164.843,1369.107,1173.158,1365.739z M1060.375,1501.585c0.092,0.074-0.155-0.02-0.159-0.139
			c-2.043-47.426,16.682-77.555,37.016-90.938c24.323-16,54.588-16.305,71.263-15.148c0,0-49.098,5.086-66.544,24.866
			c0,0,8.561,1.235,10.028,2.196c8.617-4.68,19.189-12.186,28.082-8.255C1097.737,1427.279,1062.753,1489.554,1060.375,1501.585z
			 M1184.294,1599.705c-3.236-11.974-11.881-23.101-21.349-30.29c-6.743-5.122-19.682-13.938-20.57-13.449
			c17.781,20.021,30.136,41.761,27.147,69.496c-16.745-18.405-36.962-67.885-40.997-76.47c-3.655,9.113-6.683,16.654-10.123,25.241
			c-9.216-19.769-15.715-39.371-14.608-62.153c-8.123,8.263-16.247,16.529-25.226,25.662c2.031-15.154,3.981-29.449,10.049-42.968
			c8.816-19.664,24.788-32.063,43.565-43.974c-13.826,32.93-13.349,64.05,1.909,94.458c0.532-0.016-12.085-40.5,2.571-55.674
			c-1.607,39.442,15.021,42.619,43.119,80.632C1183.959,1575.868,1184.807,1589.48,1184.294,1599.705z M1229.441,1625.833
			c6.786-14.507,13.392-28.621,20.404-43.613c3.537,3.043,6.729,5.792,10.152,8.744
			C1252.514,1605.474,1244.551,1618.452,1229.441,1625.833z M1298.013,1583.062c-6.039-6.092-12.719-11.143-22.254-8.666
			c-0.259-0.577-0.522-1.158-0.782-1.736c8.332-7.58,16.661-15.161,25.854-23.521c0.988,10.901,1.871,20.708,2.748,30.325
			C1301.399,1580.875,1300.063,1581.737,1298.013,1583.062z M1286.862,1505.455c1.719,6.615,1.161,12.171,6.809,19.504
			c0.269-0.826,0.423-1.718,0.833-2.464c0.408-0.756,1.069-1.374,2.141-2.693c3.009,1.797,6.23,3.171,8.737,5.359
			c3.549,3.098,3.818,7.117,0.512,10.613c-3.225,3.419-6.715,6.653-10.433,9.529c-6.166,4.775-12.249,9.846-19.029,13.612
			c-8.428,4.676-18.477-0.015-20.174-9.509c-1.711-9.593,7.406-19.448,6.388-30.729c-6.27-1.302-23.33-3.233-31.153-4.434
			c-6.857-1.052-12.98-3.463-16.594-9.345c-3.445-5.623-8.801-9.354-14.539-5.832c-4.035,2.489,0.51,30.887,1.63,34.437
			c-3.352,0.246-5.474,0.398-8.971,0.649c-2.895-4.249-4.392-17.078-28.046-38.537c1.129,28.191,6.347,43.578,44.897,84.718
			c10.114,10.797,13.35,22.42,9.731,36.22c-2.386,9.104-19.128,20.512-21.021,20.694c2.272-2.815,9.694-11.599,9.419-26.013
			c-0.251-13.311-3.293-26.432-36.629-61.439c-18.789-19.74-17.319-50.091-17.776-50.341c-2.426,2.81-4.852,5.621-8.212,9.513
			c-0.257-9.99-6.069-42.856,15.077-46.478c0.176-1.276,0.366-2.621,0.64-4.553c-9.515-0.07-22.335-4.923-18.293-22.436
			c1.221-5.301,3.907-10.827,7.177-15.385c5.842-8.162,14.333-13.12,24.309-13.954c4.65-0.388,9.788,1.266,14.213,3.155
			c3.9,1.661,7.114,4.935,10.629,7.501c-0.196,0.545-38.838-6.248-45.566,16.526c-0.801,2.712,1.006,7.241,3.971,7.903
			c20.499,4.598,19.136,14.602,18.577,39.967c-0.234,10.521,5.504,21.522,13.639,27.113c0-2.553,0.306-4.85-0.054-7.041
			c-1.405-8.586-1.255-16.885,1.656-25.318c3.166-9.182,2.978-18.698-0.032-27.484c6.63-0.424,13.327-0.848,20.118-1.28
			c0.447-1.702,0.75-2.847,1.035-3.931c-2.787-0.706-5.28-1.333-8.988-2.272c2.805-1.865,5.449-2.081,6.276-4.186
			c0.551-1.396-1.2-2.955-1.011-4.294c1.232-8.882,12.018-11.18,20.989-9.209c3.918,0.858,7.885,1.695,11.646,3.054
			c3.562,1.277,6.878,3.219,10.309,4.868c0.743-2.437,1.393-4.566,2.211-7.239c-7.474-5.909-17.479-4.385-26.396-7.5
			c6.927-8.521,24.819-29.604,25.922-31.462c4.493,1.593,8.488,3.01,13.257,4.701c-0.946,3.085-6.534,15.902-7.717,18.08
			c-5.896-1.105-9.646,1.274-10.525,6.676c3.126,1.314,13.13,2.576,15.326,11.882c1.742,0.941,3.487,1.884,6.234,3.369
			c-0.735,4.179-9.257,21.258,3.775,28.125c10.424,5.486,20.982,11.554,29.313,19.582c8.163,7.868,19.364,13.486,23.317,26.102
			C1325.271,1504.418,1299.736,1505.455,1286.862,1505.455z"/>
		<path d="M1253.481,1452.447c-6.94-10.412-9.592-14.064-20.043-15.736c10.31,7.654,9.358,12.982,7.557,12.994
			c-10.402,0.062-22.693,6.467-19.894,7.934c6.533,3.425,17.777,10.582,22.617,7.786c3.904-2.258,2.738-5.251,5.86-7.784
			C1250.068,1457.243,1255.834,1455.979,1253.481,1452.447z"/>
		<path d="M1246.584,1468.716c0.107,2.081-0.344,3.864,0.352,4.689c1.487,1.759,3.489,3.13,5.419,4.464
			c8.873,6.134,19.716,10.374,21.225,25.198c4.974-4.269,8.577-7.354,13.224-11.338c-3.146-2.085-5.536-4.773-8.357-5.348
			C1266.371,1483.921,1257.57,1475.876,1246.584,1468.716z"/>
		<path d="M1226.491,1471.133c-1.751,0-5.044,1.792-5.362,4.505c-0.56,4.693,9.263,10.558,9.754,10.242
			c-0.872-1.588-1.747-3.18-2.813-5.114c3.503-0.676,6.533-1.259,10.101-1.947
			C1236.392,1476.334,1232.356,1471.128,1226.491,1471.133z"/>
	</g>
	<path fill="#FFFFFF" d="M1229.64,1459.266c0,0,6.418-4.47,8.534-3.542c1.642,0.723,1.772,4.84,2.777,6.623
		C1241.662,1463.612,1233.884,1459.719,1229.64,1459.266z"/>
	<g>
		<path fill="#ED2A24" d="M1136.663,1489.582c-14.656,15.175-2.039,55.656-2.571,55.674c-15.262-30.406-15.735-61.529-1.909-94.459
			c-18.777,11.91-34.749,24.313-43.565,43.973c-6.067,13.519-8.018,27.815-10.049,42.971c8.979-9.136,17.103-17.398,25.226-25.665
			c-1.106,22.784,5.393,42.387,14.608,62.155c3.44-8.585,6.468-16.131,10.123-25.239c4.035,8.583,24.252,58.063,40.997,76.47
			c2.988-27.735-9.366-49.475-27.147-69.499c0.889-0.485,13.827,8.328,20.57,13.45c9.468,7.188,18.112,18.315,21.349,30.288
			c0.513-10.224-0.335-23.834-4.513-29.49C1151.684,1532.202,1135.056,1529.024,1136.663,1489.582z"/>
		<path fill="#ED2A24" d="M1140.061,1414.168c-8.893-3.931-19.465,3.575-28.084,8.255c-1.466-0.958-10.026-2.196-10.026-2.196
			c17.446-19.782,66.544-24.866,66.544-24.866c-16.675-1.156-46.939-0.852-71.263,15.148
			c-20.334,13.382-39.059,43.509-37.016,90.938c0.004,0.119,0.251,0.213,0.159,0.139
			C1062.753,1489.554,1097.737,1427.279,1140.061,1414.168z"/>
		<path fill="#ED2A24" d="M1229.441,1625.833c15.109-7.381,23.075-20.361,30.557-34.869c-3.426-2.951-6.615-5.701-10.152-8.744
			C1242.833,1597.212,1236.228,1611.329,1229.441,1625.833z"/>
		<path fill="#ED2A24" d="M1218.592,1343.532c-8.194,1.022-15.03,1.881-22.396,2.8c-4.412,21.077,6.97,38.899,11.068,58.109
			c-11.356-12.941-19.05-28.464-34.107-38.702c-8.314,3.368-25.27,12.133-25.233,13.062c24.083,3.781,56.744,28.927,63.913,34.615
			C1214.68,1400.692,1216.095,1355.647,1218.592,1343.532z"/>
		<path fill="#ED2A24" d="M1254,1370.252c-7.804-2.597-15.056-5.008-23.652-7.872c-1.21,6.197-5.136,35.776-5.924,43.293
			C1224.891,1405.794,1250.221,1376.541,1254,1370.252z"/>
		<path fill="#ED2A24" d="M1274.977,1572.662c0.263,0.578,0.526,1.156,0.783,1.735c9.534-2.477,16.214,2.572,22.254,8.666
			c2.05-1.326,3.386-2.187,5.565-3.6c-0.877-9.614-1.76-19.422-2.748-30.322C1291.638,1557.498,1283.309,1565.079,1274.977,1572.662
			z"/>
		<path fill="#ED2A24" d="M1303.1,1477.445c-8.331-8.028-18.89-14.093-29.313-19.582c-13.032-6.864-4.512-23.944-3.775-28.122
			c-2.747-1.484-4.492-2.427-6.234-3.368c-2.196-9.308-12.2-10.567-15.326-11.885c0.875-5.401,4.627-7.783,10.525-6.674
			c1.183-2.177,6.771-14.995,7.717-18.081c-4.769-1.691-8.764-3.108-13.257-4.699c-1.103,1.858-18.997,22.938-25.922,31.461
			c8.919,3.116,18.923,1.592,26.396,7.499c-0.818,2.675-1.469,4.805-2.211,7.241c-3.431-1.652-6.747-3.591-10.309-4.868
			c-3.762-1.36-7.729-2.195-11.646-3.055c-8.973-1.97-19.757,0.324-20.989,9.208c-0.189,1.339,1.562,2.897,1.011,4.296
			c-0.827,2.104-3.472,2.316-6.276,4.184c3.708,0.938,6.201,1.568,8.988,2.273c-0.285,1.081-0.588,2.229-1.035,3.929
			c-6.791,0.433-13.488,0.858-20.118,1.283c3.01,8.782,3.198,18.301,0.032,27.484c-2.911,8.433-3.062,16.729-1.656,25.318
			c0.359,2.187,0.054,4.485,0.054,7.039c-8.135-5.592-13.873-16.594-13.639-27.114c0.563-25.364,1.922-35.37-18.577-39.965
			c-2.965-0.665-4.771-5.19-3.971-7.905c6.729-22.771,45.37-15.979,45.566-16.524c-3.515-2.566-6.729-5.841-10.629-7.502
			c-4.425-1.888-9.563-3.541-14.213-3.153c-9.976,0.833-18.467,5.792-24.309,13.952c-3.27,4.56-5.959,10.083-7.177,15.385
			c-4.042,17.513,8.778,22.367,18.293,22.436c-0.273,1.932-0.464,3.277-0.64,4.553c-21.146,3.62-15.334,36.485-15.077,46.479
			c3.36-3.892,5.786-6.704,8.212-9.516c0.457,0.253-1.013,30.604,17.776,50.343c33.336,35.005,36.378,48.128,36.629,61.438
			c0.275,14.417-7.143,23.199-9.419,26.013c1.893-0.182,18.635-11.591,21.021-20.691c3.618-13.8,0.383-25.426-9.731-36.222
			c-38.551-41.139-43.769-56.526-44.897-84.716c23.654,21.459,25.151,34.288,28.046,38.537c3.497-0.253,5.619-0.403,8.971-0.649
			c-1.12-3.553-5.665-31.949-1.63-34.437c5.736-3.526,11.094,0.209,14.539,5.832c3.613,5.882,9.736,8.291,16.594,9.34
			c7.823,1.205,24.884,3.135,31.153,4.438c1.019,11.279-8.102,21.136-6.388,30.728c1.697,9.494,11.746,14.187,20.174,9.512
			c6.78-3.767,12.863-8.837,19.029-13.616c3.718-2.874,7.208-6.106,10.433-9.527c3.307-3.497,3.034-7.516-0.512-10.613
			c-2.507-2.19-5.729-3.564-8.737-5.357c-1.071,1.319-1.733,1.937-2.141,2.691c-0.41,0.747-0.568,1.638-0.833,2.465
			c-5.647-7.334-5.09-12.888-6.809-19.505c12.874,0,38.409-1.037,39.555-1.906C1322.464,1490.933,1311.263,1485.314,1303.1,1477.445
			z M1228.069,1480.766c1.066,1.938,1.939,3.526,2.813,5.114c-0.488,0.315-10.313-5.549-9.754-10.242
			c0.318-2.713,3.611-4.502,5.362-4.502c5.865-0.005,9.9,5.2,11.683,7.685C1234.603,1479.507,1231.572,1480.092,1228.069,1480.766z
			 M1243.719,1465.425c-4.84,2.796-16.084-4.361-22.617-7.786c-2.8-1.467,9.491-7.872,19.894-7.934
			c1.802-0.012,2.753-5.34-7.557-12.994c10.451,1.672,13.103,5.324,20.043,15.736c2.356,3.531-3.413,4.796-3.9,5.193
			C1246.457,1460.174,1247.623,1463.167,1243.719,1465.425z M1273.581,1503.067c-1.511-14.824-12.352-19.064-21.227-25.198
			c-1.929-1.332-3.932-2.705-5.419-4.464c-0.694-0.825-0.241-2.608-0.349-4.689c10.983,7.16,19.784,15.205,31.862,17.667
			c2.819,0.573,5.21,3.262,8.356,5.351C1282.156,1495.713,1278.553,1498.801,1273.581,1503.067z"/>
	</g>
</g>
<g opacity="0.1">
	<path d="M3085.154,1298.186c11.616-40.831,20.164-82.613,27.939-124.373c6.396-34.375,11.493-69.218,13.673-104.059
		c1.803-28.781-1.495-57.915-2.588-88.378c53.042-26.21,103.535-51.169,155.271-76.708c-0.288-10.401-0.677-24.544-0.968-34.96
		c25.014-16.685,45.971-30.664,66.741-44.519c-2.376-19.979-4.646-38.916-6.971-58.463c11.899-7.937,23.324-15.558,35.355-23.583
		c-7.267-49.644-14.425-98.603-21.353-146.095c15.183-8.453,26.535-14.805,42.584-23.74
		c-34.221-51.303-67.226-100.783-101.664-152.412c-27.008,6.831-56.512,14.292-87.732,22.204
		c-0.518-12.556-2.674-61.52-3.926-59.433C3000.262,250.8,2824.385,143.641,2587.15,196.504
		c-181.104,40.358-420.588,260.571-450.238,350.5c33.174,0.343,108.415,4.205,108.415,4.205s-89.966,106.321-123.062,285.877
		l118.484-5.292c0,0-80.074,211.559-94.854,248.209c20.248,24.656,38.134,46.427,56.139,68.349
		c-15.479,15.476-46.892-2.763-59.555,9.913c10.982,8.667,137.262,104.976,184.065,127.003
		c238.494,112.259,221.259,42.873,273.55,17.052c44.267,23.882,24.946,91.373,44.29,115.972
		c19.555,24.876,87.973,42.474,102.492,28.083c37.796-37.496,23.997-70.549,120.186-93.189
		c16.935-3.983,57.751-17.587,95.231-32.523C2990.993,1352.729,3059.533,1388.281,3085.154,1298.186z M3304.404,626.124
		c10.133,37.09,18.693,68.365,27.902,102.021c-31.098,1.466-193.999-19.062-194.666-21
		C3166.027,692.229,3279.681,636.443,3304.404,626.124z M3157.898,432.169c-0.684,77.258-37.371,140.958-56.312,211.508
		c58.16-59.696,94.27-141.834,179.064-175.871c20.576,23.823,39.702,45.936,62.6,72.446
		c-48.64,19.717-210.964,120.784-262.577,140.703c3.214-38.692,15.059-213.177-28.29-307.103
		C3055.572,371.534,3126.43,410.747,3157.898,432.169z M2412.854,353.912c-0.045,0.5-0.295-0.592,0.111-0.889
		c162.594-118.872,313.025-123.714,408.141-83.447c113.744,48.182,186.076,154.293,221.255,215.869
		c0,0-133.549-161.327-244.447-176.336c0,0,15.796,33.128,15.86,40.569c36.806,19.398,88.191,39.043,95.256,79.687
		C2763.1,310.843,2460.917,333.981,2412.854,353.912z M2358.273,1022.337c34.642-39.614,53.568-96.327,56.653-146.671
		c2.2-35.865,2.857-102.29-0.962-104.273c-28.805,109.901-76.45,204.69-181.387,259.45
		c25.539-102.443,152.592-290.3,173.396-324.759c-40.776,8.556-74.521,15.626-112.932,23.697
		c48.079-79.073,101.974-148.165,184.995-197.898c-48.295-9.22-96.6-18.43-149.977-28.621
		c58.275-28.51,113.325-55.283,175.328-65.696c90.166-15.179,171.538,12.007,257.785,50.241
		c-148.784,28.73-257.509,103.686-328.917,229.14c1.306,1.838,114.5-138.016,202.566-122.008
		c-143.004,87.194-115.069,153.363-183.086,342.045C2441.623,965.029,2395.569,1000.073,2358.273,1022.337z M2372.345,1243.21
		c67.185-10.199,132.553-20.113,201.985-30.66c-2.41,19.648-4.6,37.391-6.959,56.42
		C2498.533,1276.715,2433.969,1279.167,2372.345,1243.21z M2684.764,1384.549c7.283-35.659,9.387-71.128-21.805-98.954
		c1.428-2.273,2.856-4.572,4.288-6.849c46.371,11.562,92.743,23.112,143.896,35.881c-36.153,29.153-68.689,55.358-100.568,81.095
		C2700.459,1391.355,2694.271,1388.671,2684.764,1384.549z M2932.444,1162.468c-19.304,21.645-40.228,32.757-52.814,69.957
		c3.55-1,7.059-2.552,10.661-2.861c3.625-0.337,7.366,0.54,14.545,1.215c0.74,14.852,3.477,29.459,1.655,43.457
		c-2.577,19.822-16.133,30.235-36.258,26.795c-19.661-3.331-39.296-8.035-58.2-14.389c-31.373-10.52-63.592-20.053-92.851-35.117
		c-36.349-18.739-43.451-65.254-13.935-93.598c29.831-28.624,86.086-19.647,123.505-49.802
		c-10.164-25.195-43.517-89.965-57.696-120.404c-12.436-26.681-18.339-53.972-6.087-80.573c11.736-25.4,12.3-53.089-13.646-65.05
		c-18.287-8.383-107.822,74.518-117.715,86.83c-8.759-11.249-14.292-18.382-23.416-30.135
		c8.186-20.222,49.945-55.712,69.996-189.729c-96.85,70.36-138.877,125.005-193.325,357.94
		c-14.296,61.12-47.704,99.904-104.935,119.629c-37.752,13.016-117.438-19.226-122.536-25.475
		c15.291,1.389,63.763,6.91,113.995-27.997c46.39-32.228,85.542-73.858,130.624-273.948
		c25.442-112.798,136.033-179.068,135.839-181.271c-15.631-1.949-31.264-3.89-52.913-6.59
		c34.657-24.428,136.984-122.325,199.554-56.21c4.92-2.384,10.115-4.88,17.576-8.46c-22.151-33.75-35.209-90.427,36.119-117.395
		c21.587-8.172,47.418-11.7,71.204-10.891c42.565,1.405,80.056,19.703,106.489,52.95c12.316,15.5,18.578,37.531,22.326,57.597
		c3.319,17.68-0.667,36.729-1.453,55.18c-2.385,0.588-69.389-151.802-165.617-121.932c-11.457,3.561-23.188,20.603-18.549,32.627
		c32.035,83.18-6.484,101.922-97.332,159.672c-37.687,23.943-63.013,70.102-63.592,111.976c9.009-6.01,17.839-10.338,24.724-16.765
		c27.001-25.176,56.648-44.184,93.269-53.768c39.863-10.441,73.014-33.511,96.937-64.824c17.104,22.405,34.37,45.045,51.889,68
		c7.061-2.428,11.815-4.055,16.31-5.601c-4.067-11.5-7.725-21.776-13.141-37.077c13.188,5.505,20.175,14.333,29.55,12.299
		c6.226-1.341,7.606-11.195,12.779-13.679c34.254-16.561,67.756,16.101,81.921,52.405c6.198,15.852,12.58,31.823,16.645,48.298
		c3.877,15.579,4.832,31.857,7.086,47.852c10.35-3.113,19.398-5.836,30.76-9.24c3.261-40.293-25.676-72.022-35.676-110.831
		c46.384,4.387,162.93,17.907,172.084,17.422c4.957,19.608,9.361,37.047,14.62,57.863c-13.12,3.922-71.517,14.377-81.987,15.327
		c-9.981-23.417-27.211-31.046-48.346-21.434c2.721,14.127,21.819,52.41-5.854,82.073c0.777,8.367,1.558,16.746,2.785,29.938
		c-16.48,7.243-96.831,17.377-90.387,79.542c5.176,49.715,8.619,101.269-0.104,149.578c-8.551,47.338-2.012,100.104-37.231,143.758
		C3026.535,1295.603,2962.757,1207.912,2932.444,1162.468z"/>
</g>
<g opacity="0.1">
	<path d="M-254.752,737.457c19.958-22.304,38.263-46.156,56.073-70.231c14.657-19.819,28.636-40.337,40.763-61.751
		c10.021-17.69,16.916-37.178,25.618-56.828c41.711-0.256,81.42-0.505,122.097-0.739c3.024-6.683,7.141-15.769,10.168-22.462
		c21.005-2.862,38.604-5.26,56.044-7.638c4.655-13.398,9.057-26.104,13.612-39.214c9.992-1.36,19.585-2.669,29.688-4.045
		c10.705-33.715,21.268-66.96,31.522-99.206c12.233-0.676,21.391-1.201,34.32-1.916c-5.871-43.078-11.534-84.627-17.442-127.98
		c-19.229-3.999-40.235-8.369-62.468-12.983c3.543-8.119,17.278-39.825,15.843-38.888C14.476,47.267-63.973-74.915-230.676-114.572
		c-127.262-30.273-347.006,35.469-393.542,83.336c20.926,10.449,67.435,36.104,67.435,36.104s-89.828,39.656-166.191,143.28
		l76.748,33.19c0,0-116.016,109.423-136.69,128.1c5.232,21.875,9.856,41.195,14.51,60.646
		c-14.586,5.036-28.876-16.215-40.813-12.085c4.29,8.883,54.641,108.888,77.519,137.289
		c116.574,144.726,127.047,95.422,168.162,95.181c20.698,28.794-12.367,65.622-7.691,87.184
		c4.725,21.801,42.671,54.06,56.315,49.415c35.526-12.114,36.973-37.324,104.937-22.009c11.964,2.698,42.036,6.663,70.404,8.753
		C-331.271,742.992-298.785,786.672-254.752,737.457z M91.53,379.017c-5.016,26.639-9.235,49.106-13.777,73.284
		c-20.168-8.663-117.109-71.92-116.937-73.355C-16.586,378.246,72.672,377.934,91.53,379.017z M58.472,210.87
		C34.209,259.637-8.696,288.705-42.464,327.59c55.283-19.907,103.51-60.843,167.765-56.267
		c5.698,21.449,11.002,41.368,17.342,65.236c-36.917-2.502-170.998,11.504-209.863,8.213
		c13.972-23.539,75.299-130.502,76.787-203.417C12.302,140.868,45.129,187.583,58.472,210.87z M-389.724-68.54
		c-0.183,0.304-0.005-0.466,0.344-0.529c139.743-25.211,236.605,18.118,284.486,72.982c57.248,65.628,70.377,155.208,73.686,205.096
		c0,0-34.906-143.467-100.582-187.187c0,0-0.204,25.874-2.459,30.612c17.351,23.649,43.868,51.953,35.812,79.898
		C-154.396,12.184-353.105-66.351-389.724-68.54z M-630.49,338.384c34.179-14.429,63.67-44.545,81.154-75.51
		c12.457-22.058,33.361-63.966,31.551-66.402c-52.159,60.789-111.6,106.187-195.016,108.537
		c47.788-57.068,186.275-136.976,210.093-152.405c-28.49-7.153-52.063-13.078-78.903-19.809
		c54.869-35.3,110.346-62.479,178.319-68.401c-27.774-20.741-55.557-41.479-86.252-64.403c45.737-0.1,88.896-0.094,131.415,12.428
		c61.844,18.188,105.046,60.52,147.93,111.361c-103.185-27.676-195.231-13.691-279.196,43.817
		c0.261,1.568,115.159-52.182,166.052-14.87c-117.553,11.171-120.252,61.736-221.568,160.375
		C-559.974,327.761-599.979,335.773-630.49,338.384z M-689.694,482.75c45.739,14.256,90.238,28.131,137.509,42.86
		c-7.588,11.713-14.449,22.287-21.814,33.623C-620.029,542.912-661.716,524.552-689.694,482.75z M-535.224,668.714
		c15.616-20.36,27.889-42.198,16.697-69.459c1.607-1,3.222-2.018,4.831-3.018c25.832,21.631,51.668,43.256,80.158,67.13
		c-31.911,7.33-60.621,13.908-88.769,20.392C-527.374,677.871-530.469,674.259-535.224,668.714z M-309.706,604.315
		c-18.914,7.768-35.606,8.36-55.06,28.061c2.559,0.461,5.262,0.56,7.641,1.474c2.402,0.905,4.503,2.615,8.847,5.257
		c-4.111,9.644-6.882,19.747-12.354,28.061c-7.748,11.771-19.553,14.192-31.25,5.804c-11.438-8.176-22.435-17.214-32.459-27.073
		c-16.645-16.345-34.13-32.326-48.033-50.902c-17.264-23.09-7.419-54.77,20.035-63.636c27.741-8.944,60.635,14.098,93.658,6.522
		c1.327-19.108,0.161-70.457,0.56-94.127c0.346-20.751,5.021-39.873,20.992-52.958c15.275-12.483,24.172-29.863,11.413-45.448
		c-9.007-10.955-91.339,13.985-101.408,18.74c-2.083-9.833-3.391-16.062-5.55-26.327c11.426-10.295,48.847-19.915,102.893-98.692
		c-83.1,14.735-126.598,36.414-232.961,167.293c-27.915,34.339-61.056,48.622-103.422,43.475
		c-27.948-3.393-68.521-48.41-69.826-53.944c9.265,5.597,38.292,24.047,80.904,17.411c39.35-6.124,77.011-20.44,167.306-133.385
		c50.92-63.663,141.471-71.566,142.027-73.022c-9.308-6.057-18.62-12.109-31.512-20.498c29.506-4.796,124.573-35.299,143.847,25.915
		c3.854,0.005,7.918,0.025,13.752,0.057c-3.634-28.228,5.569-68.188,59.107-63.284c16.206,1.477,33.67,7.208,48.5,15.057
		c26.552,14.02,44.675,37.183,51.179,66.414c3.027,13.625,0.201,29.523-3.611,43.4c-3.348,12.232-11.75,23.079-17.94,34.534
		c-1.693-0.362,2.831-117.639-67.388-128.382c-8.362-1.276-21.056,5.909-21.822,14.964c-5.347,62.613-35.548,62.614-110.954,71.206
		c-31.277,3.556-61.57,25.007-74.852,51.375c7.565-1.032,14.498-1.052,20.845-3.003c24.883-7.633,49.541-10.539,75.713-5.32
		c28.492,5.676,56.624,1.274,81.448-11.198c3.934,19.479,7.896,39.159,11.923,59.114c5.224,0.638,8.741,1.074,12.066,1.479
		c0.969-8.545,1.818-16.188,3.105-27.558c6.661,7.558,8.369,15.31,14.94,16.912c4.36,1.07,8.273-4.752,12.319-4.73
		c26.824,0.066,37.989,31.105,35.771,58.49c-0.959,11.961-1.84,24.056-4.343,35.753c-2.349,11.072-6.764,21.687-10.268,32.521
		c7.521,1.219,14.098,2.283,22.351,3.63c14.494-24.539,5.937-53.58,11.565-81.267c28.054,17.087,97.771,61.606,103.722,64.121
		c-2.904,13.961-5.491,26.375-8.577,41.194c-9.526-1.561-49.773-12.944-56.705-15.571c0.896-17.924-7.674-28.075-24.038-28.5
		c-2.633,9.795-2.332,39.956-29.024,50.227c-2.089,5.544-4.179,11.097-7.469,19.839c-12.682-0.491-66.748-18.85-81.835,22.549
		c-12.053,33.113-25.771,66.859-46.201,94.794c-20.022,27.373-32.15,62.842-67.943,79.654
		C-291.119,717.739-304.506,642.475-309.706,604.315z"/>
</g>
<g opacity="0.1">
	<path d="M-756.12,614.723c-9.444,41.388-15.773,83.563-21.333,125.675c-4.572,34.665-7.821,69.728-8.158,104.636
		c-0.28,28.835,4.552,57.755,7.252,88.118c-51.584,28.974-100.689,56.564-151.004,84.8c0.836,10.372,1.972,24.475,2.813,34.86
		c-24.097,17.982-44.288,33.05-64.297,47.981c3.428,19.825,6.694,38.616,10.048,58.013c-11.464,8.554-22.47,16.768-34.061,25.418
		c9.878,49.19,19.612,97.703,29.038,144.763c-14.715,9.243-25.717,16.186-41.271,25.956c36.882,49.423,72.454,97.092,109.571,146.83
		c26.61-8.249,55.678-17.256,86.438-26.806c1.181,12.511,5.919,61.292,7.059,59.142
		c207.993,122.056,389.283,219.777,623.395,154.458c178.721-49.865,406.241-282.417,431.101-373.787
		c-33.146,1.41-108.486,1.525-108.486,1.525s84.226-110.923,107.792-291.976l-118.038,11.542c0,0,68.789-215.492,81.613-252.872
		c-21.522-23.553-40.533-44.349-59.671-65.289c14.64-16.272,46.973,0.282,58.949-13.044
		c-11.425-8.075-142.615-97.58-190.517-117.105c-244.089-99.508-223.214-31.13-274.069-2.583
		c-45.466-21.509-29.736-89.928-50.353-113.47c-20.841-23.809-90.093-37.769-103.832-22.631
		c-35.764,39.44-20.238,71.717-115.097,99.407c-16.7,4.872-56.741,20.612-93.381,37.507
		C-664.971,555.282-735.293,523.399-756.12,614.723z M-939.572,1297.425c-12.079-36.503-22.279-67.281-33.252-100.404
		c30.977-3.105,194.736,8.79,195.503,10.69C-804.88,1224.104-915.429,1285.814-939.572,1297.425z M-783.028,1483.372
		c-3.398-77.187,29.875-142.735,45.063-214.188c-54.926,62.685-86.647,146.615-169.527,185.082
		c-21.806-22.703-42.072-43.774-66.338-69.04c47.53-22.258,204.291-131.756,254.781-154.373
		c-1.167,38.809-3.781,213.675,44.468,305.181C-677.644,1538.519-750.473,1503.104-783.028,1483.372z M-34.891,1522.175
		c0.018-0.502,0.325,0.574-0.064,0.894c-156.09,127.292-306.056,140.071-403.164,104.884
		c-116.13-42.107-193.965-144.251-232.347-203.883c0,0,141.882,154.05,253.418,163.181c0,0-17.523-32.248-17.98-39.676
		c-37.779-17.428-90.13-34.331-99.331-74.545C-382.374,1583.68-81.835,1544.616-34.891,1522.175z M-15.686,851.801
		c-32.503,41.388-48.408,99.021-48.829,149.458c-0.303,35.93,2.549,102.297,6.467,104.076
		c22.961-111.27,65.534-208.442,167.433-268.667C89.291,940.317-27.664,1134.621-46.618,1170.131
		c40.268-10.698,73.592-19.54,111.521-29.627c-43.836,81.501-94.007,153.343-174.285,207.39
		c48.715,6.657,97.438,13.303,151.278,20.662c-56.688,31.547-110.247,61.189-171.614,74.863
		c-89.238,19.919-171.932-2.932-260.079-36.558c147.06-36.547,251.674-117.141,316.358-246.189
		c-1.401-1.767-107.053,143.869-195.841,132.535c138.198-94.626,106.81-159.228,164.767-351.236
		C-95.894,913.429-51.754,876.002-15.686,851.801z M-41.402,631.979c-66.552,13.732-131.306,27.085-200.084,41.284
		c1.369-19.749,2.619-37.581,3.97-56.709C-169.184,605.184-104.84,599.325-41.402,631.979z M-360.849,507.335
		c-5.39,35.994-5.618,71.524,27,97.664c-1.306,2.346-2.611,4.717-3.92,7.066c-46.917-9.097-93.834-18.182-145.59-28.231
		c34.563-31.022,65.67-58.909,96.145-86.292C-376.882,501.366-370.56,503.721-360.849,507.335z M-596.456,742.186
		c18.133-22.633,38.441-34.834,49.046-72.648c-3.493,1.187-6.915,2.922-10.496,3.421c-3.602,0.528-7.385-0.15-14.589-0.445
		c-1.523-14.792-5.027-29.235-3.947-43.309c1.526-19.931,14.514-31.045,34.792-28.672c19.81,2.288,39.666,5.949,58.879,11.294
		c31.885,8.849,64.562,16.667,94.576,30.165c37.288,16.793,46.836,62.867,18.858,92.731
		c-28.277,30.159-84.929,24.166-120.702,56.254c11.479,24.624,48.206,87.542,63.974,117.189
		c13.827,25.987,21.163,52.929,10.334,80.14c-10.379,25.984-9.479,53.665,17.062,64.239c18.704,7.405,103.736-80.107,112.965-92.927
		c9.341,10.771,15.243,17.602,24.974,28.857c-7.105,20.625-46.934,58.271-59.878,193.16
		c92.999-75.377,132.081-132.166,174.152-367.651c11.049-61.789,42.362-102.283,98.471-125.004
		c37.013-14.99,118.289,12.999,123.711,18.968c-15.344-0.579-64.039-3.532-112.357,33.979
		c-44.624,34.632-81.522,78.272-115.976,280.465c-19.449,113.982-126.386,186.001-126.076,188.191
		c15.713,1.121,31.427,2.233,53.188,3.786c-33.319,26.225-130.333,129.389-196.307,66.67c-4.787,2.642-9.844,5.407-17.105,9.376
		c23.903,32.534,39.935,88.442-29.87,119.14c-21.125,9.301-46.733,14.188-70.53,14.636c-42.579,0.844-80.984-15.448-109.136-47.252
		c-13.117-14.828-20.534-36.497-25.336-56.338c-4.249-17.48-1.274-36.713-1.463-55.18c2.351-0.714,77.308,147.925,171.825,113.015
		c11.253-4.161,22.068-21.799,16.8-33.561c-36.383-81.373,1.093-102.123,88.764-164.589c36.37-25.901,59.223-73.333,57.59-115.179
		c-8.679,6.478-17.269,11.266-23.804,18.048c-25.634,26.565-54.236,47.112-90.298,58.616
		c-39.257,12.532-71.142,37.321-93.378,69.854c-18.264-21.471-36.702-43.167-55.408-65.165c-6.922,2.797-11.584,4.673-15.991,6.455
		c4.669,11.269,8.864,21.336,15.08,36.329c-13.459-4.802-20.903-13.247-30.158-10.72c-6.146,1.667-7.005,11.579-12.04,14.334
		c-33.331,18.346-68.512-12.5-84.573-48.006c-7.027-15.502-14.244-31.114-19.173-47.352c-4.694-15.354-6.508-31.558-9.603-47.411
		c-10.17,3.655-19.063,6.853-30.229,10.853c-1.127,40.408,29.444,70.566,41.479,108.792c-46.55-1.932-163.648-9.278-172.764-8.31
		c-5.985-19.319-11.304-36.5-17.655-57.011c12.895-4.609,70.657-18.133,81.063-19.635c11.205,22.856,28.812,29.565,49.411,18.85
		c-3.463-13.963-24.557-51.185,1.511-82.268c-1.219-8.314-2.439-16.641-4.363-29.749c16.076-8.104,95.778-22.467,86.06-84.204
		c-7.793-49.373-13.956-100.672-7.795-149.375c6.039-47.724-3.277-100.071,29.587-145.524
		C-697.447,614.207-629.126,698.406-596.456,742.186z"/>
</g>
<g opacity="0.05">
	<path d="M1829.282,1437.652c-32.305,27.541-62.582,57.574-92.205,88.019c-24.382,25.063-47.938,51.234-69.069,79.022
		c-17.455,22.953-30.863,49.028-46.844,74.988c-58.674-7.596-114.533-14.816-171.75-22.244
		c-5.527,8.816-13.045,20.803-18.577,29.633c-30.066,0.019-55.26,0.033-80.227,0.048c-9.099,17.945-17.709,34.965-26.61,52.521
		c-14.304,0.009-28.037,0.018-42.499,0.027c-21.475,45.344-42.66,90.059-63.225,133.424c-17.321-1.381-30.292-2.39-48.603-3.851
		c0.039,61.668,0.075,121.146,0.112,183.207c26.266,9.288,54.955,19.437,85.325,30.16c-6.529,10.737-31.88,52.682-29.681,51.639
		c93.832,222.157,180.796,408.848,407.543,496.373c173.098,66.817,494.494,16.316,569.027-42.09
		c-27.42-18.677-87.897-63.606-87.897-63.606s133.819-38.607,260.907-169.694l-101.54-61.283c0,0,183.929-131.676,216.549-153.984
		c-3.183-31.746-5.998-59.78-8.83-88.007c21.462-4.299,37.495,28.296,55.061,24.767c-4.335-13.301-56.037-163.464-82.777-207.744
		c-136.25-225.648-160.373-158.348-218.208-165.849c-23.602-44.416,29.896-89.875,27.435-121.071
		c-2.484-31.545-49.669-84.12-69.73-80.193c-52.244,10.252-59.083,45.409-151.689,10.926c-16.3-6.074-57.813-17.38-97.287-25.729
		C1937.887,1444.46,1900.556,1376.873,1829.282,1437.652z M1274.221,1875.422c12.128-36.486,22.343-67.26,33.338-100.375
		c26.693,16.021,150.888,123.417,150.368,125.399C1426.034,1897.123,1300.518,1880.54,1274.221,1875.422z M1288.622,2118.064
		c43.4-63.92,109.249-96.595,164.125-144.811c-81.499,17.439-157.089,65.779-246.529,47.096c-3.918-31.234-7.576-60.24-11.935-95
		c51.412,10.559,242.537,16.437,296.536,28.475c-24.126,30.42-130.719,169.067-146.714,271.27
		C1340.166,2225.257,1302.934,2153.339,1288.622,2118.064z M1865.299,2596.247c0.313-0.392-0.082,0.655-0.586,0.678
		c-201.222,8.788-329.102-70.581-385.938-156.824c-67.952-103.16-69.322-231.572-64.463-302.321c0,0,21.707,208.305,105.681,282.276
		c0,0,5.22-36.327,9.292-42.556c-19.877-36.551-51.751-81.387-35.097-119.13C1549.929,2437.914,1814.247,2586.188,1865.299,2596.247
		z M2281.299,2070.211c-50.794,13.762-97.988,50.469-128.466,90.658c-21.713,28.627-59.087,83.545-57.008,87.313
		c84.902-75.496,177.107-127.97,294.799-115.366c-78.051,71.1-287.938,157.004-324.354,174.15
		c38.68,15.485,70.683,28.309,107.123,42.888c-83.852,39.153-167.011,66.775-263.675,62.138
		c35.081,34.448,70.177,68.893,108.949,106.968c-64.306-8.581-124.963-16.819-182.34-42.526
		c-83.455-37.356-136.104-105.093-186.687-184.729c139.752,58.575,271.795,56.47,400.776-8.349
		c-0.068-2.254-171.81,51.384-236.228-10.763c167.355,6.712,180.792-63.843,342.003-183.164
		C2180.158,2071.694,2237.916,2068.063,2281.299,2070.211z M2392.039,1878.588c-61.568-28.76-121.469-56.748-185.101-86.466
		c12.899-15.016,24.558-28.566,37.072-43.097C2305.596,1780.743,2360.688,1814.496,2392.039,1878.588z M2210.389,1587.752
		c-25.831,25.641-47.246,53.992-36.714,94.443c-2.449,1.101-4.913,2.223-7.366,3.322c-32.183-35.33-64.371-70.651-99.865-109.637
		c46.252-4.221,87.858-7.99,128.658-11.736C2201.1,1573.387,2204.762,1579.051,2210.389,1587.752z M1881.134,1635.265
		c28.064-7.312,51.64-4.96,82.74-28.941c-3.511-1.136-7.292-1.789-10.461-3.528c-3.203-1.729-5.831-4.533-11.432-9.076
		c7.619-12.77,13.44-26.445,22.716-37.084c13.134-15.068,30.189-16.221,45.03-2.198c14.515,13.672,28.249,28.472,40.461,44.24
		c20.277,26.149,41.807,51.945,57.805,80.704c19.862,35.747-0.014,78.396-40.293,85.621c-40.695,7.284-82.538-31.375-130.396-27.023
		c-5.512,26.604-13.662,98.998-18.736,132.191c-4.442,29.102-14.659,55.086-39.604,70.433c-23.85,14.633-39.67,37.366-24.708,61.704
		c10.571,17.114,131.047-2.241,146.107-7.004c1.053,14.219,1.704,23.222,2.78,38.062c-18.022,12.291-72.454,18.676-163.439,119.096
		c119.611-4.864,184.883-27.044,359.338-190.717c45.783-42.94,95.088-56.697,153.654-41.386
		c38.635,10.1,87.078,81.109,87.857,89.137c-11.957-9.633-49.236-41.102-110.395-39.897
		c-56.476,1.102-112.139,14.043-260.59,155.575c-83.708,79.77-212.487,73.611-213.549,75.552
		c11.929,10.289,23.863,20.571,40.384,34.819c-42.386,1.117-181.821,25.862-197.241-63.851c-5.416-0.743-11.124-1.547-19.317-2.705
		c-0.276,40.37-20.831,94.778-95.146,77.679c-22.496-5.166-45.949-16.55-65.297-30.412c-34.645-24.768-55.703-60.78-59.271-103.104
		c-1.656-19.728,5.346-41.534,13.353-60.313c7.039-16.555,20.917-30.198,31.801-45.118c2.311,0.833-26.412,164.805,70.234,193.296
		c11.512,3.388,30.723-4.292,33.526-16.87c19.455-86.988,61.903-81.23,169.527-78.925c44.64,0.965,91.308-23.41,115.004-57.938
		c-10.83,0.008-20.579-1.286-29.871,0.246c-36.429,5.982-71.641,5.365-107.43-6.961c-38.966-13.411-79.345-12.588-116.615,0.21
		c-1.813-28.13-3.633-56.545-5.486-85.361c-7.221-1.894-12.08-3.176-16.679-4.379c-2.989,11.825-5.643,22.403-9.617,38.14
		c-7.923-11.894-8.845-23.113-17.775-26.617c-5.925-2.335-12.536,5.099-18.219,4.3c-37.688-5.208-47.464-50.964-39.125-89.032
		c3.63-16.628,7.172-33.459,12.924-49.424c5.41-15.115,13.64-29.191,20.632-43.753c-10.339-3.147-19.38-5.897-30.723-9.362
		c-25.052,31.726-18.562,74.176-31.754,112.018c-36.17-29.367-125.67-105.232-133.559-109.902
		c6.746-19.068,12.747-36.021,19.913-56.262c13.094,4.01,67.489,27.683,76.729,32.697c-4.674,25.021,5.435,40.924,28.354,44.641
		c5.567-13.266,10.896-55.715,50.373-65.061c3.991-7.395,7.988-14.8,14.278-26.46c17.733,3.109,90.222,39.221,119.323-16.087
		c23.255-44.246,48.969-89.061,83.013-124.43c33.36-34.656,57.172-82.196,110.685-99.003
		C1876.637,1472.3,1881.101,1580.639,1881.134,1635.265z"/>
	<path d="M1725.356,1806.258c8.828-0.463,16.395,1.449,19.894-1.505c7.461-6.317,13.275-14.812,18.928-23.003
		c26.001-37.666,43.965-83.68,106.858-90.121c-18.123-21.09-31.224-36.373-48.139-56.078c-8.837,13.355-20.237,23.5-22.67,35.474
		C1789.82,1722.263,1755.707,1759.621,1725.356,1806.258z"/>
</g>
<g opacity="0.1">
	<path d="M813.455,259.562c6.88,8.224,14.169,16.121,21.697,23.829h32.344C849.773,274.886,831.931,266.602,813.455,259.562z"/>
	<path d="M475.209,247.732c4.479,12,8.908,23.869,13.309,35.659h38.02c-4.922-24.71-11.435-92.338-68.562-92.251
		c-49.983,0.099-101.62-1.713-148.793-15.298c-46.225-13.315-99.381-12.17-139.232-51.643c2.577-5.528,96.293-60.068,144.581-85.607
		C294.96,17.19,286.03-4.754,250.302-21.055c0.635,3.633,1.82,7.281,1.764,10.896c-0.034,3.641-1.286,7.273-2.686,14.346
		c-14.851-0.772-29.66,0.466-43.4-2.768c-19.458-4.577-28.441-19.121-22.974-38.792c5.311-19.221,11.985-38.276,20.227-56.438
		c13.652-30.142,26.409-61.226,44.368-88.803c22.334-34.257,69.33-36.598,94.528-4.354c25.446,32.584,10.801,87.636,36.998,127.925
		c26.098-7.552,93.92-34.152,125.643-45.167c27.806-9.661,55.556-12.761,80.774,2.129c24.077,14.256,51.564,17.63,66.1-6.966
		c10.197-17.341-63.179-114.834-74.423-125.927c12.081-7.571,19.739-12.351,32.358-20.234
		c19.285,10.198,50.35,55.347,181.636,88.908c-60.157-103.496-110.25-150.857-336.449-228.687
		c-59.352-20.431-94.541-57.606-108.351-116.544c-9.112-38.879,31.057-114.877,37.791-119.314
		c-2.935,15.071-13.352,62.731,16.272,116.25c27.348,49.423,64.786,92.603,259.261,157.778
		c109.63,36.77,164.323,153.521,166.534,153.551c3.527-15.352,7.046-30.707,11.932-51.97
		c20.78,36.959,107.776,148.702,35.647,204.231c1.871,5.137,3.826,10.559,6.631,18.345C916.309-51.267,974.02-58.5,993.602,15.2
		c5.938,22.305,6.823,48.361,3.601,71.942c-5.722,42.203-27.733,77.64-63.493,100.559c-16.672,10.678-39.224,14.67-59.567,16.359
		c-17.926,1.507-36.471-4.395-54.747-7.051c-0.343-2.432,158.065-53.608,138.125-152.374c-2.378-11.759-18.141-25.161-30.574-21.767
		C840.941,46.288,826.21,6.063,777.987-90.181c-19.991-39.924-63.338-69.808-104.937-74.638c5.063,9.572,8.473,18.797,14.167,26.299
		c22.303,29.419,38.2,60.844,44.015,98.248c6.338,40.718,25.921,76.04,54.641,103.02c-24.026,14.74-48.303,29.617-72.919,44.712
		c1.697,7.271,2.833,12.166,3.915,16.794c11.854-2.878,22.448-5.473,38.22-9.306c-6.816,12.56-16.309,18.614-15.237,28.147
		c0.702,6.33,10.364,8.704,12.31,14.103c12.996,35.759-22.9,65.77-60.456,76.174c-16.399,4.556-32.937,9.282-49.738,11.652
		c-15.893,2.273-32.184,1.57-48.324,2.188c2.046,10.612,3.835,19.891,6.067,31.539c39.754,7.338,74.259-18.227,113.882-24.232
		c-1.564,7.875-3.609,17.798-5.927,28.872h88.471c-8.168-20.016-14.511-36.955-17.642-48.421
		c38.165,7.129,210.544,36.637,308.388,3.055c1.078,1.853-12.089,22.358-28.269,45.366h84.424
		c112.394-148.114,190.754-293.481,167.538-490.177c-21.752-184.268-216.497-444.883-302.949-483.516
		c-3.711,32.968-15.195,107.427-15.195,107.427S895.798-683.175,720.533-734.34l-6.771,118.409c0,0-202.33-101.151-237.289-119.577
		c-26.586,17.638-50.061,33.22-73.698,48.904c-13.823-16.971,7.512-46.368-3.812-60.253
		c-9.738,10.045-118.377,125.887-145.045,170.211C118.013-350.79,188.79-360.887,209.166-306.244
		c-28.256,41.611-93.435,15.535-119.872,32.279c-26.732,16.927-51.189,83.203-38.349,99.109
		c33.463,41.41,67.746,31.04,80.498,129.031c2.241,17.251,11.629,59.239,22.681,98.042c-34.817,25.292-77.148,89.866,9.878,124.507
		c39.44,15.704,80.138,28.452,120.892,40.429c33.548,9.855,67.692,18.466,102.132,24.173
		C415.475,246.045,444.792,245.724,475.209,247.732z M1172.561-395.97c101.739,173.828,91.274,323.974,41.554,414.506
		c-59.487,108.261-172.397,169.439-237.229,198.181c0,0,174.059-116.469,200.256-225.269c0,0-34.561,12.349-41.971,11.657
		c-23.036,34.645-47.801,83.769-88.951,86.668c132.733-133.134,140.414-436.104,125.468-485.944
		C1171.195-396.267,1172.307-396.405,1172.561-395.97z M652.423-447.112c35.456,5.832,101.471,13.234,103.831,9.636
		c-106.406-39.82-195.865-96.849-239.681-206.805c99.318,35.814,273.296,181.293,305.464,205.49
		c-4.369-41.435-7.976-75.723-12.103-114.754c73.779,55.863,137.039,116.498,178.081,204.142
		c14.078-47.108,28.147-94.228,43.709-146.293c22.442,60.87,43.485,118.355,47.546,181.095
		c5.939,91.242-29.371,169.431-76.169,251.348c-13.468-150.933-76.99-266.71-194.541-350.493
		c-1.961,1.112,125.671,127.928,100.799,213.913c-72.216-151.122-140.88-130.054-321.677-216.886
		c-26.873-12.911-57.058-62.287-75.417-101.651C548.155-479.886,602.652-455.295,652.423-447.112z M291.106-526.812
		c3.321,67.873,6.543,133.91,9.981,204.055c-19.301-4.394-36.729-8.375-55.42-12.655
		C244.954-404.68,249.075-469.159,291.106-526.812z M105.023-205.825c5.37-9.62,8.671-15.503,13.736-24.542
		c34.736,10.868,69.808,16.564,100.658-11.639c2.117,1.651,4.259,3.306,6.377,4.961c-16.212,44.957-32.413,89.916-50.313,139.506
		C150.152-136.467,127.389-171.497,105.023-205.825z"/>
</g>
<path opacity="0.05" d="M1096.147,1976.227c0,0,42.176-132.737,3.695-311.216l-107.342,50.437c0,0-7.416-226.083-7.862-265.6
	c-28.172-14.977-53.053-28.197-78.103-41.512c1.344-3.26,3.412-5.865,5.954-8.021H689.654
	c-50.061,30.365-99.454,60.322-151.481,91.889c-5.329-19.064-10.128-36.284-15.266-54.76c25.856-14.35,51.367-27.497,77.613-37.129
	H492.233c-3.246,6.42-7.017,12.803-12.358,18.924c-15.085-1.516-26.356-8.914-35.496-18.924h-68.313
	c8.005,25.864,21.937,48.033,52.208,58.531c-0.444,2.648-0.879,5.32-1.326,7.971c-47.252,7.155-94.5,14.32-146.63,22.2
	c17.104-31.493,32.893-60.532,48.188-88.702H283.46v-41.296c-10.434,39.146,1.146,64.782-69.59,115.903
	c-14.101,10.186-46.55,38.438-75.408,66.636c-38.821-18.57-115.761-25.04-104.774,67.982c4.974,42.159,13.146,84.016,22.023,125.556
	c7.311,34.192,16.002,68.315,27.385,101.317c9.4,27.261,23.646,52.889,36.366,80.591c-38.89,44.587-75.905,87.04-113.847,130.507
	c4.265,9.491,10.061,22.397,14.334,31.901c-16.676,25.019-30.649,45.981-44.497,66.756c9.875,17.53,19.251,34.14,28.912,51.289
	c-7.934,11.902-15.551,23.33-23.571,35.364c25.794,43.034,51.226,85.479,75.879,126.656c-10.766,13.641-18.805,23.869-30.185,38.288
	c51.314,34.202,100.806,67.191,152.446,101.612c22.306-16.69,46.674-34.92,72.453-54.227c5.306,11.392,26.12,55.763,26.474,53.354
	c236.871,45.282,440.429,76.589,639.105-63.42c151.669-106.883,288.085-402.241,280.882-496.658
	C1167.091,1950.866,1096.147,1976.227,1096.147,1976.227z M95.518,2086.461c18.218,17.778,37.056,18.198,52.87,1.198
	c-7.942-11.995-40.292-39.993-26.149-78.016c-3.935-7.425-7.876-14.86-14.082-26.565c12.431-13.023,82.708-53.27,52.86-108.179
	c-23.892-43.905-46.892-90.171-57.411-138.122c-10.306-46.987-36.629-93.184-20.9-147.023c6.089-0.366,98.679,56.064,144.133,86.361
	c9.498-27.401,24.542-45.704,21.86-84.886c-2.894,2.289-5.536,5.071-8.742,6.742c-3.217,1.704-7.008,2.333-13.895,4.47
	c-6.393-13.427-14.535-25.859-18.235-39.481c-5.242-19.289,3.269-34.114,23.17-38.674c19.43-4.483,39.364-7.69,59.259-9.095
	c33.007-2.349,66.414-5.936,99.216-3.277c40.76,3.324,65.198,43.532,48.848,81.046c-16.533,37.893-71.917,51.234-94.865,93.456
	c19.068,19.353,74.759,66.321,99.551,88.969c21.738,19.85,37.68,42.773,36.597,72.041c-1.069,27.96,9.057,53.738,37.606,54.805
	c20.104,0.708,70.885-110.243,75.284-125.414c12.411,7.018,20.261,11.475,33.201,18.817c0.219,21.813-24.688,70.632,8.327,202.057
	c62.355-102.188,80.143-168.791,40.854-404.756c-10.301-61.919,5.629-110.565,50.877-150.778
	c29.848-26.528,115.804-27.4,122.913-23.593c-14.65,4.598-61.52,18.136-94.47,69.673c-30.436,47.585-50.572,101.068-15.264,303.113
	c19.879,113.908-56.733,217.603-55.708,219.563c15.18-4.21,30.357-8.429,51.38-14.26c-22.602,35.875-79.426,165.588-162.605,128.61
	c-3.625,4.093-7.462,8.394-12.974,14.566c33.425,22.641,67.269,69.941,11.791,122.26c-16.786,15.844-39.274,29.031-61.545,37.429
	c-39.833,15.066-81.478,12.589-118.661-7.939c-17.328-9.574-31.579-27.504-42.753-44.588c-9.862-15.045-13.506-34.162-19.873-51.497
	c1.976-1.46,122.415,113.458,199.765,48.888c9.208-7.693,13.485-27.936,4.58-37.251c-61.553-64.472-33.199-96.582,28.465-184.819
	c25.584-36.594,31.218-88.941,15.653-127.819c-6.006,9.013-12.494,16.402-16.378,24.982c-15.247,33.621-35.309,62.565-65.429,85.491
	c-32.786,24.965-54.518,59.007-64.563,97.111c-24.403-14.107-49.048-28.368-74.045-42.824c-5.584,4.955-9.348,8.285-12.901,11.441
	c8.176,9.052,15.502,17.131,26.384,29.173c-14.291-0.013-24.135-5.475-32.007,0.009c-5.231,3.631-2.719,13.257-6.538,17.54
	c-25.254,28.456-68.738,11.186-95.772-16.883c-11.815-12.25-23.849-24.54-33.934-38.187c-9.569-12.892-16.709-27.551-24.938-41.45
	c-8.357,6.853-15.664,12.846-24.843,20.356c12.48,38.449,51.392,56.616,75.543,88.597c-44.505,13.782-157.292,46.108-165.556,50.077
	c-12.114-16.196-22.885-30.6-35.741-47.796C36.329,2123.465,86.217,2091.363,95.518,2086.461z M24.688,2230.789
	c28.144-13.309,186.417-56.988,187.777-55.455c-20.47,24.682-103.941,119.875-122.797,138.906
	C66.053,2283.897,46.128,2258.318,24.688,2230.789z M299.481,2436.963c-29.072-71.583-19.694-144.492-29.334-216.902
	c-30.738,77.469-32.494,167.177-97.687,231.197c-28.154-14.081-54.311-27.141-85.642-42.812
	c37.322-36.901,148.313-192.607,188.303-230.839c11.909,36.954,68.056,202.582,144.184,272.623
	C417.254,2453.598,336.767,2444.642,299.481,2436.963z M1017.589,2223.631c-104.396,172.246-241.404,234.55-344.689,233.946
	c-123.526-0.749-231.095-70.896-287.243-114.214c0,0,185.309,97.584,293.453,68.803c0,0-27.318-24.509-30.238-31.354
	c-41.436-3.758-96.423-2.137-118.57-36.941c180.28,53.31,450.343-84.226,487.05-121.104
	C1017.198,2222.289,1017.85,2223.199,1017.589,2223.631z M901.611,2180.351c-77.4,48.677-162.969,54.864-257.287,52.728
	c126.303-83.723,197.854-194.719,215.543-337.983c-1.912-1.194-52.64,171.429-140.091,190.509
	c98.488-135.473,47.263-185.816,37.512-386.145c-1.446-29.779,27.597-79.836,53.467-114.727
	c-16.751,49.888-12.419,109.52,4.089,157.18c11.758,33.952,36.688,95.525,40.977,95.889
	c-15.662-112.529-8.12-218.352,67.698-309.246c15.809,104.39-29.257,326.654-35.212,366.463
	c34.353-23.576,62.785-43.076,95.141-65.292c-13.983,91.479-37.174,175.981-94.693,253.809
	c48.128-10.056,96.26-20.125,149.453-31.237C995.371,2101.02,954.846,2146.898,901.611,2180.351z"/>
<g opacity="0.1">
	<path d="M1736.596,253.54c-2.456,10.501-5.491,20.328-9.101,29.527h345.977c-13.453-29.771-40.336-82.305-52.684-108.811
		c-12.436-26.681-18.339-53.972-6.087-80.573c11.736-25.4,12.3-53.089-13.646-65.05c-18.287-8.383-107.822,74.518-117.715,86.83
		c-8.759-11.249-14.292-18.382-23.416-30.135c8.186-20.222,49.945-55.712,69.996-189.729
		C1833.071-34.041,1791.044,20.604,1736.596,253.54z"/>
	<path d="M2376.498,256.289c1.803-28.781-1.495-57.915-2.588-88.378c53.042-26.21,103.535-51.169,155.271-76.708
		c-0.288-10.401-0.677-24.544-0.968-34.96c25.014-16.685,45.971-30.664,66.741-44.519c-2.376-19.979-4.646-38.916-6.971-58.463
		c11.899-7.937,23.324-15.558,35.355-23.583c-7.267-49.644-14.425-98.603-21.353-146.095c15.183-8.453,26.535-14.805,42.584-23.74
		c-34.221-51.303-67.226-100.783-101.664-152.412c-27.008,6.831-56.512,14.292-87.732,22.204
		c-0.518-12.556-2.674-61.52-3.926-59.433c-201.256-132.868-377.133-240.027-614.367-187.164
		c-181.104,40.358-420.588,260.571-450.238,350.5c33.174,0.343,108.415,4.205,108.415,4.205s-89.966,106.321-123.062,285.877
		l118.484-5.292c0,0-80.074,211.559-94.854,248.209c4.641,5.651,9.152,11.145,13.574,16.529h254.957
		c29.936-36.066,58.336-98.624,89.585-237.318c25.442-112.798,136.033-179.068,135.839-181.271
		c-15.631-1.949-31.264-3.89-52.913-6.59c34.657-24.428,136.984-122.325,199.554-56.21c4.92-2.384,10.115-4.88,17.576-8.46
		c-22.151-33.75-35.209-90.427,36.119-117.395c21.587-8.172,47.418-11.7,71.204-10.891c42.565,1.405,80.056,19.703,106.489,52.95
		c12.316,15.5,18.578,37.531,22.326,57.597c3.319,17.68-0.667,36.729-1.453,55.18c-2.385,0.588-69.389-151.802-165.617-121.932
		c-11.457,3.561-23.188,20.603-18.549,32.627c32.035,83.18-6.484,101.922-97.332,159.672
		c-37.687,23.943-63.013,70.102-63.592,111.976c9.009-6.01,17.839-10.338,24.724-16.765c27.001-25.176,56.648-44.184,93.269-53.768
		c39.863-10.441,73.014-33.511,96.937-64.824c17.104,22.405,34.37,45.045,51.889,68c7.061-2.428,11.815-4.055,16.31-5.601
		c-4.067-11.5-7.725-21.776-13.141-37.077c13.188,5.505,20.175,14.333,29.55,12.299c6.226-1.341,7.606-11.195,12.779-13.679
		c34.254-16.561,67.756,16.101,81.921,52.405c6.198,15.852,12.58,31.823,16.645,48.298c3.877,15.579,4.832,31.857,7.086,47.852
		c10.35-3.113,19.398-5.836,30.76-9.24c3.261-40.293-25.676-72.022-35.676-110.831c46.384,4.387,162.93,17.907,172.084,17.422
		c4.957,19.608,9.361,37.047,14.62,57.863c-13.12,3.922-71.517,14.377-81.987,15.327c-9.981-23.417-27.211-31.046-48.346-21.434
		c2.721,14.127,21.819,52.41-5.854,82.073c0.777,8.367,1.558,16.746,2.785,29.938c-16.48,7.243-19.986,63.712-13.542,125.877
		 M1681.988-96.519c1.306,1.838,114.5-138.016,202.566-122.008c-143.004,87.194-115.069,153.363-183.086,342.045
		c-10.114,28.046-56.168,63.09-93.464,85.354c34.642-39.614,53.568-96.327,56.653-146.671c2.2-35.865,2.857-102.29-0.962-104.273
		c-28.805,109.901-76.45,204.69-181.387,259.45c25.539-102.443,152.592-290.3,173.396-324.759
		c-40.776,8.556-74.521,15.626-112.932,23.697c48.079-79.073,101.974-148.165,184.995-197.898
		c-48.295-9.22-96.6-18.43-149.977-28.621c58.275-28.51,113.325-55.283,175.328-65.696c90.166-15.179,171.538,12.007,257.785,50.241
		C1862.121-296.929,1753.396-221.973,1681.988-96.519z M2047.645-504.356c0,0,15.796,33.128,15.86,40.569
		c36.806,19.398,88.191,39.043,95.256,79.687c-145.93-118.522-448.112-95.384-496.176-75.453c-0.045,0.5-0.295-0.592,0.111-0.889
		c162.594-118.872,313.025-123.714,408.141-83.447c113.744,48.182,186.076,154.293,221.255,215.869
		C2292.092-328.02,2158.543-489.347,2047.645-504.356z M2387.372-106.321c28.387-14.915,142.04-70.701,166.764-81.021
		c10.133,37.09,18.693,68.365,27.902,102.021C2550.94-83.854,2388.039-104.383,2387.372-106.321z M2330.405-132.509
		c3.214-38.692,15.059-213.177-28.29-307.103c3.188-2.319,74.046,36.894,105.515,58.316
		c-0.684,77.258-37.371,140.958-56.312,211.508c58.16-59.696,94.27-141.834,179.064-175.871
		c20.576,23.823,39.702,45.936,62.6,72.446C2544.343-253.496,2382.019-152.428,2330.405-132.509z"/>
</g>
<g>
	<path fill="#FFFFFF" d="M906.7,198.093h-20.609v-53.472c0-4.091-0.223-6.746-0.646-7.89c-0.846-2.426-2.842-3.652-6.025-3.652
		c-4.334,0-9.041,2.275-14.109,6.811v58.204h-20.148v-52.545c0-4.201-0.256-7.045-0.793-8.518c-0.957-2.638-3.139-3.952-6.555-3.952
		c-4.682,0-9.371,2.063-14.055,6.148v58.866h-20.611V141.49c0-10.253-1.012-17.173-3.008-20.774l19.178-5.239
		c1.164,1.906,2.113,4.653,2.855,8.258c5.707-5.508,12.309-8.258,19.822-8.258c6.66,0,12.15,2.223,16.49,6.671
		c0.852,0.942,1.904,2.264,3.174,3.959c6.977-7.089,14.641-10.634,22.994-10.634c8.133,0,13.955,2.159,17.432,6.5
		c3.072,3.92,4.604,10.049,4.604,18.398v57.722H906.7z"/>
	<path fill="#FFFFFF" d="M994.542,157.188c0,12.369-3.014,22.423-9.033,30.124c-6.561,8.353-15.859,12.529-27.91,12.529
		c-11.736,0-20.881-4.176-27.43-12.529c-6.02-7.613-9.049-17.44-9.049-29.486c0-12.06,3.029-21.939,9.049-29.667
		c6.549-8.561,15.699-12.836,27.43-12.836c11.83,0,21.098,4.135,27.744,12.369C991.481,135.307,994.542,145.13,994.542,157.188z
		 M971.399,157.097c0-7.405-0.59-12.989-1.75-16.691c-2.002-6.261-5.926-9.378-11.734-9.378c-5.604,0-9.402,3.232-11.416,9.698
		c-1.168,3.709-1.75,9.271-1.75,16.703c0,8.056,0.529,13.842,1.607,17.332c1.887,6.563,5.852,9.853,11.877,9.853
		C967.001,184.614,971.399,175.446,971.399,157.097z"/>
	<path fill="#FFFFFF" d="M1065.116,183.345l-5.074,14.748h-59.797v-13.158l38.275-52.648h-35.104v-14.904h60.26v14.583
		l-35.82,51.379H1065.116L1065.116,183.345z"/>
	<path fill="#FFFFFF" d="M1099.688,94.55c0,3.698-1.275,6.827-3.82,9.349c-2.531,2.544-5.65,3.805-9.35,3.805
		c-3.59,0-6.672-1.285-9.197-3.883c-2.537-2.586-3.805-5.674-3.805-9.271c0-3.699,1.295-6.823,3.875-9.354
		c2.604-2.539,5.742-3.801,9.434-3.801c3.715,0,6.764,1.263,9.203,3.801C1098.446,87.727,1099.688,90.856,1099.688,94.55z
		 M1097.146,198.093h-21.244V118.18l21.244-3.324V198.093z"/>
	<path fill="#FFFFFF" d="M1149.64,197.915c-3.811,1.491-8.041,2.254-12.682,2.254c-9.85,0-16.133-3.723-18.871-11.117
		c-1.291-3.403-1.912-9.479-1.912-18.268v-60.653c0-9.538-0.379-17.675-1.107-24.45l21.709-4.928
		c0.754,4.127,1.117,11.164,1.117,21.095v63.267c0,8.133,0,12.115,0,11.884c0.523,5.627,2.43,8.405,5.715,8.405
		c0.846,0,1.639-0.091,2.377-0.307L1149.64,197.915z"/>
	<path fill="#FFFFFF" d="M1192.286,197.915c-3.805,1.491-8.016,2.254-12.68,2.254c-9.838,0-16.129-3.723-18.861-11.117
		c-1.285-3.403-1.906-9.479-1.906-18.268v-60.653c0-9.538-0.379-17.675-1.113-24.45l21.709-4.928
		c0.76,4.127,1.111,11.164,1.111,21.095v63.267c0,8.133,0,12.115,0,11.884c0.535,5.627,2.436,8.405,5.721,8.405
		c0.84,0,1.639-0.091,2.371-0.307L1192.286,197.915z"/>
	<path fill="#FFFFFF" d="M1268.562,189.211l-11.264,13.014c-5.492-2.319-9.297-5.599-11.416-9.838
		c-2.105,2.015-3.756,3.442-4.906,4.296c-4.127,2.959-9.572,4.423-16.34,4.423c-8.664,0-15.369-2.04-20.133-6.159
		c-5.168-4.321-7.783-10.687-7.783-19.13c0-18.539,12.959-27.825,38.869-27.825c1.691,0,3.273,0,4.758,0v-3.298
		c0-4.288-0.533-7.21-1.586-8.772c-1.273-2.116-3.906-3.165-7.904-3.165c-6.527,0-14.324,3.017-23.363,9.049l-9.021-15.229
		c3.816-2.431,8.205-4.657,13.16-6.656c7.822-3.163,15.234-4.755,22.201-4.755c14.168,0,22.879,4.706,26.166,14.106
		c1.059,3.074,1.529,7.941,1.445,14.585l-0.488,28.709c0,4.229,0.418,7.405,1.27,9.528
		C1263.278,184.524,1265.392,186.899,1268.562,189.211z M1239.87,162.578h-0.949c-6.34,0-10.766,0.534-13.275,1.586
		c-4.152,1.792-6.244,5.393-6.244,10.779c0,2.967,0.807,5.476,2.457,7.536c1.648,2.072,3.947,3.093,6.912,3.093
		c4.008,0,7.705-1.841,11.1-5.563V162.578z"/>
	<path fill="#FFFFFF" d="M1337.063,107.239c0-10.257-0.744-17.553-2.209-21.885l12.83-2.547c1.279,3.705,1.912,11.826,1.912,24.355
		v74.784c0,2.633,0.16,4.435,0.477,5.376c0.627,1.687,1.943,2.534,3.975,2.534c0.307,0,0.836,0,1.586,0l2.531,8.085
		c-2.531,1.175-5.178,1.739-7.938,1.739c-3.803,0-6.945-1.125-9.428-3.402c-2.49-2.278-3.736-6-3.736-11.18V107.239
		L1337.063,107.239z"/>
	<path fill="#FFFFFF" d="M1370.679,136.097L1397.8,117.7h9.68v70.396h14.584v9.997h-41.715v-9.997h14.592v-55.34
		c-3.906,2.55-11.094,5.924-21.561,10.169L1370.679,136.097z"/>
	<path fill="#FFFFFF" d="M1470.118,200.78c-11.318,0-20.1-3.716-26.328-11.164c-6.234-7.465-9.363-17.741-9.363-30.842
		c0-12.805,3.199-22.883,9.598-30.292c6.4-7.389,14.98-11.099,25.766-11.099c11.307,0,20.094,3.723,26.328,11.183
		c6.232,7.442,9.354,17.729,9.354,30.847c0,12.783-3.201,22.883-9.594,30.277C1489.478,197.094,1480.897,200.78,1470.118,200.78z
		 M1447.44,156.72c0,11.838,1.781,20.423,5.383,25.759c3.594,5.332,9.412,8.015,17.443,8.015c14.795,0,22.195-9.683,22.195-29.025
		c0-11.836-1.797-20.422-5.377-25.777c-3.598-5.33-9.418-8.001-17.449-8.001C1454.835,127.69,1447.44,137.363,1447.44,156.72z"/>
	<path fill="#FFFFFF" d="M1525.763,139.391c0-5.379-0.148-9.089-0.471-11.079c-0.305-2.011-1.162-4.535-2.531-7.6l12.045-3.328
		c1.898,4.064,2.857,8.137,2.857,12.21c8.133-8.146,16.434-12.21,24.895-12.21c4.23,0,8.105,1.046,11.664,3.18
		c3.531,2.122,6.1,4.904,7.684,8.387c1.264,2.871,1.893,5.921,1.893,9.2v59.948h-12.527v-53.442c0-6.651-0.965-11.076-2.92-13.243
		c-1.951-2.16-4.842-3.254-8.646-3.254c-3.178,0-6.889,1.095-11.184,3.254c-4.27,2.167-7.84,4.799-10.707,7.852v58.833h-12.045
		v-58.707H1525.763z"/>
</g>
<rect x="978.279" y="1464.186" fill="none" width="1347.133" height="267.028"/>
<text transform="matrix(1 0 0 1 1413.9893 1513.2598)"><tspan x="0" y="0" fill="#FFFFFF" font-family="'FiraSansMedium'" font-size="65">Ljubljana L10n Hackathon 2016</tspan><tspan x="368.166" y="103.2" fill="#FFFFFF" font-family="'FiraSansMedium'" font-size="86">July 9 - July 10</tspan></text>
<rect x="59.624" y="1508.618" fill="none" width="865.496" height="114.968"/>
<text transform="matrix(1 0 0 1 59.624 1578.832)" fill="#FFFFFF" font-family="'FiraSansMedium'" font-size="93">#MozL10nLjubljana</text>
</svg>
